<svg xmlns="http://www.w3.org/2000/svg" width="132.119" height="146.799" viewBox="0 0 132.119 146.799"><defs><style>.a{fill:#00695c;}.b{fill:#009688;}.c{fill:#4caf50;}.d{fill:#2e7d32;}.e{fill:#607d8b;}.f{fill:#cfd8dc;}</style></defs><g transform="translate(-25.6)"><g transform="translate(28.047 2.447)"><path class="a" d="M385.566,62.493v2.447a17.114,17.114,0,0,1-17.127,17.127l-1.15-1.15a17.1,17.1,0,0,0,10.937-15.977V62.493a29.352,29.352,0,0,0-29.36-29.36h7.34a29.352,29.352,0,0,1,29.36,29.36Z" transform="translate(-258.34 -25.793)"/><path class="b" d="M153.02,62.494V64.94a17.1,17.1,0,0,1-10.937,15.977L126.107,64.94a17.111,17.111,0,0,1,10.765-15.9A14.665,14.665,0,0,0,131,47.814H62.494a14.665,14.665,0,0,0-5.872,1.223,17.111,17.111,0,0,1,10.765,15.9L50.26,82.067A17.1,17.1,0,0,1,33.134,64.94V62.494a29.352,29.352,0,0,1,29.36-29.36H123.66a29.352,29.352,0,0,1,29.36,29.36Z" transform="translate(-33.134 -25.794)"/><g transform="translate(44.04)"><path class="c" d="M191.627,7.533a4.893,4.893,0,0,1,4.893,4.893v58.72h-9.787V12.426A4.893,4.893,0,0,1,191.627,7.533Z" transform="translate(-186.734 -7.533)"/><path class="c" d="M294.027,7.533a4.893,4.893,0,0,1,4.893,4.893v58.72h-9.787V12.426A4.893,4.893,0,0,1,294.027,7.533Z" transform="translate(-259.774 -7.533)"/></g><path class="d" d="M165.578,307.694H78.086a9.793,9.793,0,0,1-9.493-12.16L84.2,233.1a4.872,4.872,0,0,1,4.747-3.694h65.766a4.873,4.873,0,0,1,4.747,3.694l15.61,62.439a9.793,9.793,0,0,1-9.493,12.16Z" transform="translate(-58.219 -165.788)"/><path class="c" d="M158.532,307.694H78.086a9.793,9.793,0,0,1-9.493-12.16L84.2,233.1a4.872,4.872,0,0,1,4.747-3.694h58.72a4.873,4.873,0,0,1,4.747,3.694l15.61,62.439a9.793,9.793,0,0,1-9.493,12.16Z" transform="translate(-58.219 -165.788)"/><rect class="b" width="19.573" height="14.68" transform="translate(53.826 48.933)"/><path class="e" d="M211.319,292.892a29.352,29.352,0,0,1-29.36,29.36,25.928,25.928,0,0,1-3.67-.245,29.344,29.344,0,0,1,0-58.231,25.937,25.937,0,0,1,3.67-.245,29.352,29.352,0,0,1,29.36,29.36Z" transform="translate(-118.346 -190.133)"/><ellipse class="f" cx="25.69" cy="29.115" rx="25.69" ry="29.115" transform="translate(34.253 73.644)"/><circle class="e" cx="7.34" cy="7.34" r="7.34" transform="translate(56.273 95.42)"/></g><g transform="translate(25.6)"><path d="M157.719,39.146A31.842,31.842,0,0,0,125.913,7.34H113.68A7.34,7.34,0,0,0,99,7.34H84.32a7.34,7.34,0,0,0-14.68,0H57.406A31.842,31.842,0,0,0,25.6,39.146v2.447A19.6,19.6,0,0,0,45.173,61.166a2.445,2.445,0,0,0,1.73-.717L64.03,43.323a2.446,2.446,0,0,0,.717-1.73,19.444,19.444,0,0,0-6.664-14.68H69.64v36.7H58.78a7.328,7.328,0,0,0-7.12,5.56L36.053,131.6a12.231,12.231,0,0,0,11.868,15.2H135.4a12.232,12.232,0,0,0,11.868-15.2L131.659,69.173a7.329,7.329,0,0,0-7.12-5.56H113.68v-36.7h11.557a19.444,19.444,0,0,0-6.664,14.68,2.448,2.448,0,0,0,.717,1.73l17.126,17.126a2.445,2.445,0,0,0,1.73.717,19.6,19.6,0,0,0,19.573-19.573V39.146ZM84.32,63.613V53.827H99v9.787ZM99,48.933H84.32V26.913H99Zm0-36.7V22.02H84.32V12.233ZM57.406,22.02a17.248,17.248,0,0,0-6.834,1.421h0l-.017.007a2.283,2.283,0,0,0-.23.161,1.881,1.881,0,0,0-.957,1.015c-.028.058-.079.1-.1.158v.007a2.437,2.437,0,0,0,.031,1.874v.006a2.411,2.411,0,0,0,.474.692c.053.056.116.1.175.152a2.406,2.406,0,0,0,.562.368c.045.021.075.061.122.08a14.6,14.6,0,0,1,9.2,12.649L44.191,56.241a14.7,14.7,0,0,1-13.7-14.648V39.147A26.944,26.944,0,0,1,57.406,12.233H69.64V22.02ZM74.533,7.34a2.447,2.447,0,0,1,4.893,0V63.613H74.533V7.34Zm52.381,63.02,15.607,62.424a7.343,7.343,0,0,1-7.122,9.121H47.921a7.342,7.342,0,0,1-7.122-9.12L56.405,70.36a2.446,2.446,0,0,1,2.375-1.854h65.759A2.446,2.446,0,0,1,126.914,70.36Zm-23.021-6.747V7.34a2.447,2.447,0,1,1,4.893,0V63.613Zm35.235-7.372L123.5,40.611a14.6,14.6,0,0,1,9.2-12.649c.047-.019.077-.058.122-.08a2.409,2.409,0,0,0,.562-.368c.059-.052.121-.1.175-.152a2.411,2.411,0,0,0,.474-.692v-.006a2.437,2.437,0,0,0,.031-1.874v-.007c-.025-.062-.075-.1-.1-.16a1.887,1.887,0,0,0-.961-1.017,2.3,2.3,0,0,0-.224-.158l-.017-.006h0a17.237,17.237,0,0,0-6.836-1.422H113.68V12.233h12.233a26.944,26.944,0,0,1,26.913,26.913v2.447A14.7,14.7,0,0,1,139.128,56.241Z" transform="translate(-25.6)"/><path d="M145.067,287.806A31.806,31.806,0,1,0,176.873,256,31.806,31.806,0,0,0,145.067,287.806Zm58.72,0a26.913,26.913,0,1,1-26.913-26.913A26.913,26.913,0,0,1,203.787,287.806Z" transform="translate(-110.814 -182.6)"/><path d="M247.467,292.581v2.447a2.447,2.447,0,0,0,4.893,0v-2.447a2.447,2.447,0,0,0-4.893,0Z" transform="translate(-183.854 -206.948)"/><path d="M249.913,418.133a2.446,2.446,0,0,0-2.447,2.447v2.447a2.447,2.447,0,1,0,4.893,0V420.58a2.446,2.446,0,0,0-2.446-2.447Z" transform="translate(-183.853 -298.247)"/><path d="M214.884,305.069a2.447,2.447,0,1,0,4.239-2.447L217.9,300.5a2.447,2.447,0,0,0-4.239,2.447Z" transform="translate(-159.507 -213.471)"/><path d="M281.9,411.353a2.447,2.447,0,0,0-4.239,2.447l1.223,2.119a2.447,2.447,0,0,0,4.239-2.447Z" transform="translate(-205.156 -292.539)"/><path d="M194.123,325.811l-2.117-1.223a2.446,2.446,0,1,0-2.447,4.236l2.117,1.223a2.422,2.422,0,0,0,1.221.329,2.446,2.446,0,0,0,1.226-4.565Z" transform="translate(-141.672 -231.286)"/><path d="M300.409,392.825l2.117,1.223a2.446,2.446,0,0,0,3.587-1.483,2.446,2.446,0,0,0-1.141-2.753l-2.117-1.223a2.446,2.446,0,1,0-2.447,4.236Z" transform="translate(-220.74 -276.937)"/><path d="M186.54,360.846a2.446,2.446,0,0,0-2.447-2.447h-2.447a2.447,2.447,0,1,0,0,4.893h2.447a2.446,2.446,0,0,0,2.447-2.446Z" transform="translate(-135.16 -255.64)"/><path d="M307.2,360.847a2.446,2.446,0,0,0,2.447,2.447h2.447a2.447,2.447,0,1,0,0-4.893h-2.447a2.446,2.446,0,0,0-2.447,2.446Z" transform="translate(-226.46 -255.641)"/><path d="M191.676,388.588l-2.117,1.223a2.446,2.446,0,1,0,2.447,4.236l2.117-1.223a2.446,2.446,0,1,0-2.447-4.236Z" transform="translate(-141.672 -276.937)"/><path d="M301.647,330.376a2.422,2.422,0,0,0,1.221-.329l2.117-1.223a2.446,2.446,0,1,0-2.447-4.236l-2.117,1.223a2.446,2.446,0,0,0,1.226,4.565Z" transform="translate(-220.752 -231.286)"/><path d="M218.226,410.454a2.446,2.446,0,0,0-3.343.9l-1.223,2.119a2.447,2.447,0,0,0,4.239,2.447l1.223-2.119a2.447,2.447,0,0,0-.9-3.343Z" transform="translate(-159.506 -292.536)"/><path d="M278.555,305.965a2.448,2.448,0,0,0,3.343-.9l1.223-2.119a2.447,2.447,0,0,0-4.239-2.447l-1.223,2.119a2.447,2.447,0,0,0,.9,3.343Z" transform="translate(-205.155 -213.471)"/><path d="M221.867,342.587a9.787,9.787,0,1,0,9.786-9.787A9.787,9.787,0,0,0,221.867,342.587Zm9.786-4.893a4.893,4.893,0,1,1-4.893,4.893A4.893,4.893,0,0,1,231.654,337.693Z" transform="translate(-165.594 -237.38)"/></g></g></svg>