<svg xmlns="http://www.w3.org/2000/svg" width="124.03" height="124.769" viewBox="0 0 124.03 124.769"><defs><style>.a{fill:#fff;}.a,.b{fill-rule:evenodd;}.b{fill:#2bb140;}</style></defs><g transform="translate(-0.5)"><g transform="translate(2.937 2.437)"><path class="a" d="M70.29,19.748A49.62,49.62,0,1,1,46.458,112.9l-3.442-1.89-18.5,5,5.044-18-2.1-3.574A49.629,49.629,0,0,1,70.29,19.748Zm-28.522,101.7A59.362,59.362,0,1,0,19.054,99.369L10.5,129.895Zm0,0" transform="translate(-10.5 -10)"/><path class="b" d="M151.47,99.62a49.62,49.62,0,1,0-92.447,25.068l2.1,3.574-5.044,18,18.5-5,3.443,1.89A49.634,49.634,0,0,0,151.47,99.62ZM87.694,97.089a41.653,41.653,0,0,0,9.731,11c4.351,3.369,11.176,7.8,13.4,5.832,1.047-.926,3.929-5.1,4.312-5.4a3.487,3.487,0,0,1,4.681-.971c3.018,1.464,10.547,5.2,10.547,5.2s1.632.659,1.562,3.216a29.832,29.832,0,0,1-.18,3.211s-1.094,8.766-13.059,9.116c-5.416.158-11.688-2.05-17.246-4.885-9.486-4.837-15.41-10.183-21.746-18.5-4.3-5.646-8.6-13.064-7.841-19.658,1.318-11.441,8.594-12.5,8.594-12.5a30.25,30.25,0,0,1,3.216-.027c2.557.052,3.137,1.713,3.137,1.713s3.533,8.067,4.851,11.152-.106,4.428-.422,4.8S89.014,93,88.038,94a2.634,2.634,0,0,0-.344,3.084Zm0,0" transform="translate(-42.062 -40.252)"/><path class="a" d="M152.267,156.085c-1.317-3.084-4.85-11.151-4.85-11.151s-.58-1.661-3.137-1.713a30.266,30.266,0,0,0-3.217.027s-7.275,1.055-8.594,12.5c-.76,6.594,3.538,14.011,7.841,19.658,6.337,8.315,12.262,13.661,21.746,18.5,5.558,2.834,11.83,5.043,17.247,4.885,11.966-.349,13.059-9.116,13.059-9.116a30.232,30.232,0,0,0,.18-3.212c.07-2.556-1.562-3.215-1.562-3.215s-7.53-3.735-10.548-5.2a3.485,3.485,0,0,0-4.681.97c-.384.3-3.266,4.474-4.313,5.4-2.218,1.963-9.044-2.464-13.4-5.832a41.666,41.666,0,0,1-9.73-11,2.634,2.634,0,0,1,.343-3.085c.976-1,2.874-3.242,3.19-3.611s1.74-1.713.422-4.8Zm0,0" transform="translate(-102.68 -110.743)"/></g><path d="M106.429,18.1a61.811,61.811,0,0,0-79.64-6.582,2.437,2.437,0,1,0,2.837,3.963,56.926,56.926,0,1,1,5.752,96.263,2.443,2.443,0,0,0-1.809-.216L6.441,118.86l7.4-26.4a2.433,2.433,0,0,0-.245-1.89A56.958,56.958,0,0,1,16.4,28.7a2.437,2.437,0,0,0-3.963-2.837A61.834,61.834,0,0,0,8.869,92.134L.591,121.674a2.436,2.436,0,0,0,2.982,3.01l30.331-8.2A61.81,61.81,0,0,0,106.429,18.1Zm0,0" transform="translate(0)"/><path d="M134.232,121.6a2.437,2.437,0,0,0,3.38-.674,52.056,52.056,0,1,0-88.255-2.564l1.573,2.681-4.764,17a2.437,2.437,0,0,0,2.982,3.01L66.7,136.307l2.582,1.417a52.1,52.1,0,0,0,53.87-2.344,2.437,2.437,0,0,0-2.705-4.053,47.23,47.23,0,0,1-48.819,2.125l-3.442-1.89a2.442,2.442,0,0,0-1.809-.216l-14.362,3.882L55.9,121.356a2.438,2.438,0,0,0-.245-1.89l-2.1-3.574a47.184,47.184,0,1,1,80,2.327,2.436,2.436,0,0,0,.674,3.379Zm0,0" transform="translate(-31.561 -30.252)"/><path d="M146,155.061l.161-.188c2.183-2.45,1.632-5.328.784-7.31-1.252-2.927-4.526-10.409-4.837-11.117a5.623,5.623,0,0,0-5.342-3.226,30.754,30.754,0,0,0-3.556.044l-.059.008c-.373.054-9.15,1.475-10.665,14.629-.7,6.047,2.1,13.252,8.324,21.414,6.886,9.036,13.216,14.418,22.577,19.191,4.661,2.377,11.47,5.159,17.809,5.159.206,0,.411,0,.615-.009,7.119-.208,10.921-3.166,12.856-5.612a12.3,12.3,0,0,0,2.545-5.6,34.227,34.227,0,0,0,.2-3.487,5.624,5.624,0,0,0-2.968-5.491c-.677-.336-7.654-3.8-10.515-5.182a5.807,5.807,0,0,0-7.327,1.3l-.038.041a15.507,15.507,0,0,0-1.726,2.142c-.64.856-1.916,2.563-2.459,3.134-1.146.081-4.978-1.607-10.411-5.813a39.332,39.332,0,0,1-9.1-10.278.474.474,0,0,1-.027-.186c.839-.862,2.2-2.447,3.157-3.566Zm2.988,17.883a54.11,54.11,0,0,0,7.887,5.162c1.455.738,5.885,2.985,8.616.568a32.066,32.066,0,0,0,3.255-3.987c.412-.551.919-1.228,1.115-1.462.128-.116.233-.23.329-.335.439-.476.639-.693,1.616-.219,2.936,1.424,10.26,5.057,10.522,5.186a1.42,1.42,0,0,1,.215.97c-.054,2.02-.133,2.75-.149,2.887a.356.356,0,0,0-.011.075,7.764,7.764,0,0,1-1.678,3.4c-1.894,2.264-4.934,3.472-9.035,3.591-5.483.163-11.763-2.424-16.069-4.62-8.761-4.468-14.43-9.294-20.915-17.8-5.354-7.025-7.9-13.216-7.358-17.9,1.017-8.823,5.852-10.209,6.5-10.356.228-.014,1-.047,2.839-.009a1.426,1.426,0,0,1,.959.262c.121.276,3.556,8.124,4.839,11.124.641,1.5.247,1.941.058,2.153l-.089.1-.14.165c-1.408,1.65-2.4,2.772-2.945,3.333a5.04,5.04,0,0,0-.707,6,43.988,43.988,0,0,0,10.349,11.71Zm0,0" transform="translate(-92.183 -100.742)"/><path d="M76.022,76.226a2.437,2.437,0,1,0-1.639-4.24h0a2.436,2.436,0,0,0,1.64,4.239Zm0,0" transform="translate(-55.275 -53.965)"/><path d="M390.465,388.4v0a2.436,2.436,0,1,0,3.443-.166A2.436,2.436,0,0,0,390.464,388.4Zm0,0" transform="translate(-294.455 -293.145)"/></g></svg>