<svg xmlns="http://www.w3.org/2000/svg" width="187.352" height="531.516" viewBox="0 0 187.352 531.516"><defs><style>.a{fill:#22b573;}.b{fill:#df00ef;}.c{fill:#ff0;}</style></defs><g transform="translate(0.038 0.036)"><g transform="translate(-0.038 -0.036)"><path class="a" d="M39.77,424.45c.552,1.08,1.409,1.691,2.442,1.057" transform="translate(6.962 73.876)"/><path d="M38.51,425.617a3.451,3.451,0,0,0,4.848,1.69,1.761,1.761,0,1,0-1.773-3.041h0c.106,0,.552.2.247,0,.282.153,0,0-.094-.117.211.247-.153-.282-.188-.352a1.761,1.761,0,1,0-3.041,1.773Z" transform="translate(6.696 73.601)"/><path class="b" d="M142.5,433.951a50.385,50.385,0,0,0-16.118-20.662c-8.969,14.087-10.436,33.669-.517,47.087s32.154,16.917,43.718,4.884c7.537-7.83,9.133-19.487,10.061-30.323,3.146-36.51,2.348-75.52-16.881-106.677l-141.25,2.348c-4.966,36.9-9.9,74.71-1.82,111.056,1.808,8.112,4.7,16.682,11.411,21.507,8.816,6.3,21.859,3.733,29.795-3.651s13.653-39.55,11.74-44.328-6.281-8.852-11.411-9.039-9.486,3.3-11.986,7.6-3.381,9.309-4.226,14.2l-1.608,9.392a6.645,6.645,0,0,0,.575,3.815" transform="translate(2.725 57.143)"/><path d="M144.325,433.373a54,54,0,0,0-16.435-21.025,1.8,1.8,0,0,0-2.77.352c-8.875,14.522-11.094,34.538-.517,48.86,8.335,11.282,24.712,16.306,37.825,11.023,17.668-7.126,18.783-28.95,19.852-45.209,1.444-21.131,1.3-42.614-3.322-63.393a122.094,122.094,0,0,0-10.108-28.668c-1.62-3.193-2.864-7.924-6.621-8.523-5.529-.869-12.092.2-17.609.294L73.3,328.269l-51.525.869a1.773,1.773,0,0,0-1.7,1.291c-3.522,26.355-7.114,52.933-5.94,79.594.552,12.538,1.867,25.569,5.447,37.637,2.465,8.288,6.973,16.6,15.531,19.758,8.077,2.97,17.539.9,24.406-4.015,5.4-3.862,7.912-9.662,9.99-15.79a113.413,113.413,0,0,0,5.024-22.3c.74-5.87,1.115-10.718-3.029-15.5-6.457-7.455-16.67-6.022-22.305,1.585-3.146,4.226-4.332,9.45-5.271,14.545s-3.134,11.082-1.35,15.977c.775,2.113,4.179,1.174,3.393-.939-1.374-3.757.5-9.321,1.174-13.183.775-4.391,1.6-8.981,3.886-12.913,3.3-5.6,9.814-8.7,15.59-4.7a10.683,10.683,0,0,1,4.919,8.476c.563,10.272-2.97,22.645-6.856,32.037-2.536,6.058-6.2,10.225-12.479,12.737-9.392,3.78-19.652,1.6-25.193-7.231-4.7-7.466-6.093-17.058-7.408-25.616a204.047,204.047,0,0,1-2.172-30.523c0-23.009,2.982-45.89,6.046-68.653l-1.7,1.291,101.3-1.7,26.883-.446,8.511-.141c.951,0,3.369-.517,4.25-.07a43.61,43.61,0,0,0,1.737,4.2,107.717,107.717,0,0,1,6.868,15.5,139.523,139.523,0,0,1,6.574,28.175c2.571,19.464,1.96,39.362.094,58.873-1.01,10.566-2.994,23.15-12.326,29.818-7.537,5.377-17.809,5.33-26.12,1.89-21.706-8.981-22.117-36.686-11.376-54.272l-2.771.352a52.158,52.158,0,0,1,15.848,20.309c.916,2.066,3.956.282,3.041-1.773Z" transform="translate(2.463 56.829)"/><path class="a" d="M63.18,420.26" transform="translate(11.034 73.147)"/><path d="M63.441,422.282a1.761,1.761,0,1,0-1.761-1.761,1.761,1.761,0,0,0,1.761,1.761Z" transform="translate(10.773 72.886)"/><path class="b" d="M63.18,420.368c11.739,12.115,32.284,14.463,46.524,5.459,0-1.444.059-2.888.188-4.355l-1-1.831" transform="translate(11.034 73.039)"/><path d="M62.193,421.866a40.231,40.231,0,0,0,31.7,11.27,36.392,36.392,0,0,0,15.543-4.7c3.463-2.113,3.005-6.151,1.174-9.392-1.092-1.984-4.132-.211-3.041,1.773,4.3,7.713-14.24,9.075-18.513,8.887a36.287,36.287,0,0,1-24.336-10.366c-1.62-1.585-4.109.9-2.489,2.489Z" transform="translate(10.777 72.785)"/><path class="b" d="M25.838,360.624c-2.653-8.218,4.261-16.2,11.153-21.331,3.193-2.348,6.633-4.7,10.566-5.4s8.405.305,10.753,3.522c2.547,3.522,1.914,8.323,1.01,12.549-2.759,12.913-8.535,27-20.955,31.333-13.031,4.52-27.752-4.86-33.352-17.445S.857,336.676,3.921,323.234c7.525-33.058,26.062-81.261,62.665-90.394a34.045,34.045,0,0,0,29.278,10.871c5.729-.751,11.141-2.97,16.647-4.7,12.244-3.921,27.858-8.875,37.707-.164s16.506,24.653,21.26,36.392a148.446,148.446,0,0,1,8.629,83c-1.831,9.615-5.635,20.262-14.686,24.007-7.6,3.158-16.928-.071-22.059-6.5s-6.41-15.367-4.7-23.409c1.55-7.361,6.9-15.1,14.428-14.991,8.312.117,13.183,9.169,16.236,16.9" transform="translate(0.256 40.545)"/><path d="M27.759,360.411c-1.62-6.656,2.348-12.268,7.044-16.6,4.367-4.038,10.871-9.122,17.175-7.9,12.315,2.348,4,23.045.282,30.217-4.555,8.793-12.538,15.837-23.021,14.651S9.844,371.388,6.076,361.738c-7.044-17.961-.751-39.14,4.848-56.725,4.931-15.379,11.469-30.64,20.943-43.788A78.653,78.653,0,0,1,48.491,243.85a57.069,57.069,0,0,1,9.1-5.541,48.768,48.768,0,0,1,5.494-2.277c2.935-1.01,3.381-.481,5.67,1.456a36.158,36.158,0,0,0,21.894,8.5c9.826.364,19.065-4.109,28.3-6.856,9.568-2.841,21.706-5.87,30.194,1.174,7.044,5.87,11.552,14.9,15.379,23.033,9.11,19.394,15.261,39.914,16.283,61.433.751,15.261.258,66-27.482,56.08-12.209-4.344-15.966-19.6-11.916-30.969,2.348-6.656,9.18-13.442,16.564-9.18,5,2.888,7.736,9.145,9.814,14.24.845,2.066,4.25,1.174,3.393-.939-3.252-7.983-8.546-18.666-18.783-18.149-9.626.493-14.8,10.918-15.825,19.323-1.3,10.566,2.524,22.211,12.326,27.564a19.746,19.746,0,0,0,25.3-4.778c7.044-8.711,8.523-21.3,9.579-32.06a149.092,149.092,0,0,0-2.09-42.567,175.82,175.82,0,0,0-12.362-37.789c-4.484-10.143-9.932-21.929-19.053-28.774-10.061-7.548-23.972-3.639-34.831-.27-8.077,2.512-16.2,6.292-24.841,5.952a32.871,32.871,0,0,1-22.634-10.566,1.761,1.761,0,0,0-1.714-.458c-39.2,10.378-56.8,58.111-64.344,93.646-4.59,21.636-2.653,52.088,23.479,58.627,22.012,5.506,34.221-18.525,36.392-36.709,1.385-11.352-7.936-17.668-18.325-13.313S21.337,349.27,24.3,361.362c.54,2.2,3.933,1.268,3.393-.939Z" transform="translate(0.038 40.289)"/><path class="c" d="M56.276,164.579l-5.635-5.87C39.477,146.97,27.984,134.7,22.878,119.335c-2.771-8.37-3.522-17.257-3.9-26.062A355.449,355.449,0,0,1,25.12,10.24C35.979,13.48,42.189,24.55,47.237,34.705c11.9,23.972,23.7,49.306,23.127,76.048C69.953,129.7,63.32,147.9,56.816,165.683" transform="translate(3.287 1.824)"/><path d="M57.8,163.6c-8.7-9.133-17.856-18.114-24.9-28.633-8.053-12.033-11.012-24.946-11.775-39.28A353.864,353.864,0,0,1,27.1,10.912l-2.172,1.174c12.4,4.3,18.044,17.609,23.385,28.48C54.634,53.479,60.644,66.58,64.577,80.421a100.278,100.278,0,0,1,3.158,43.084c-2.254,14.5-7.3,28.3-12.35,41.98-.787,2.137,2.618,3.052,3.393.939,5.447-14.85,10.883-29.854,12.913-45.631,1.89-15.332-.305-30.617-4.919-45.291-4.508-14.334-11.035-28-17.738-41.417C43.775,23.52,37.6,12.79,25.884,8.74a1.773,1.773,0,0,0-2.172,1.174c-5.623,29.525-8.124,60.094-5.87,90.112.986,12.913,4.273,24.935,11.434,35.864,7.29,11.117,16.87,20.556,25.991,30.147,1.561,1.644,4.05-.845,2.489-2.489Z" transform="translate(3.004 1.551)"/><path class="c" d="M120.367,163.674a180.894,180.894,0,0,1-9.532-85.593,134.135,134.135,0,0,1,7.572-30.992c6-15.508,15.52-29.349,24.958-43.06a6.281,6.281,0,0,1,2.618-2.536c1.89-.74,3.944.481,5.494,1.784,12.913,10.894,15.085,29.771,14.78,46.641s-2.2,33.575-6.832,49.646A151.322,151.322,0,0,1,115.3,170.143" transform="translate(19.061 0.264)"/><path d="M122.323,163.432a182.055,182.055,0,0,1-10.695-72.139,140.639,140.639,0,0,1,21.389-67.948c2.947-4.7,6.046-9.321,9.18-13.911,1.561-2.277,3.768-6.468,7.408-5.341,2.641.822,5.717,5.588,7.138,7.713,5.435,8.218,7.267,18.419,7.842,28.057a176.469,176.469,0,0,1-9.486,68.629,150.935,150.935,0,0,1-40.748,60.681c-1.679,1.526.822,4.015,2.489,2.489C154.02,137.84,172.533,86.409,167.825,36.4c-.916-9.709-3.217-19.675-8.981-27.729-3.757-5.259-10.753-12.913-16.435-5.87C126.221,23.262,114.07,47.81,110,73.613a183.722,183.722,0,0,0,8.934,90.746c.763,2.113,4.167,1.174,3.393-.939Z" transform="translate(18.806 0.036)"/><path class="b" d="M22.745,172.874c-6.081,23.127-1.4,49.036,13.125,68.089s38.74,30.394,62.595,28.609,46.418-17.14,56.174-38.963a86.872,86.872,0,0,0,6.586-26.7,133.829,133.829,0,0,0-.693-32.706c-1-6.868-2.63-13.9-6.856-19.394a37.119,37.119,0,0,0-6.633-6.41A81.284,81.284,0,0,0,34.508,157.143c-7.772,9.274-13.559,20.814-13.43,32.871" transform="translate(3.549 22.315)"/><path d="M21.285,172.658c-7.654,30.6,2.184,64.4,27.729,83.714,24,18.138,57.1,20.532,82.529,3.921,29.126-19.018,35.477-54.647,31.215-87.142-1.01-7.689-2.571-15.66-7.337-21.976-4.426-5.87-11.176-10.307-17.5-13.864a84.172,84.172,0,0,0-46.453-10.566C58.8,128.952,20.088,154.485,19.536,190.3a1.761,1.761,0,1,0,3.522,0c.47-30.358,31.344-53.286,58.768-58.756a79.723,79.723,0,0,1,43.589,3.745c14.721,5.576,29.067,14.78,32.671,30.981,6.5,29.349,2.348,65.894-21.812,86.144-21.824,18.29-52.417,20.356-77.035,6.421C29.42,241.968,16.531,206.21,24.7,173.562c.552-2.2-2.841-3.134-3.393-.939Z" transform="translate(3.307 22.061)"/><path d="M63.948,171.381a8.429,8.429,0,0,0-5.036,8.147,5.013,5.013,0,0,0,1.42,3.369c2.019,1.855,5.541.669,7.044-1.632s1.538-5.212,1.526-7.948a4.015,4.015,0,0,0-.693-2.747c-.646-.716-2.125-.646-2.348.293" transform="translate(10.29 29.63)"/><path d="M63.32,170.115a10.155,10.155,0,0,0-5.87,10.413,5.788,5.788,0,0,0,8.382,4.7c4.461-2,5.154-7.255,5.024-11.61,0-1.867-.411-3.968-2.348-4.7a3.064,3.064,0,0,0-3.886,1.315c-1,2.019,2.031,3.815,3.041,1.773-.834,1.69-.153,4.168-.552,6.034s-1.667,4.273-4.015,4.215-2.43-3.311-1.831-5.036a6.973,6.973,0,0,1,3.886-4.062c2.054-.963.27-4-1.773-3.041Z" transform="translate(10.026 29.382)"/><path d="M108.782,171.994a5.142,5.142,0,0,0,.681,10.061c2.043-.329,3.17-2.524,3.827-4.484a9.615,9.615,0,0,0,.587-5.435,3.9,3.9,0,0,0-4.027-3.064c-1.82.305-2.817,3.088-1.3,4.144" transform="translate(18.307 29.451)"/><path d="M108.567,170.562c-4.308,1.538-6.574,6.492-3.862,10.5,1.115,1.644,3.4,3.287,5.482,2.97s3.616-2.348,4.461-4.179c1.808-3.956,2.536-10.906-3.064-12.162-3.956-.892-7.044,4.144-4.015,7.044,1.644,1.561,4.132-.927,2.489-2.489-.74-.7,1.174-1.327,1.984-.223a4.062,4.062,0,0,1,.423,2.888,10.272,10.272,0,0,1-1.632,4.625c-1.174,1.514-2.724.716-3.463-.833a3.522,3.522,0,0,1,2.137-4.7c2.125-.751,1.174-4.156-.939-3.393Z" transform="translate(18.053 29.193)"/><g transform="translate(84.909 242.395)"><path class="c" d="M210.089,203.52a94.127,94.127,0,0,1-.247,19.065c-.4,3.416-1.643,7.548-5.025,8.218-4.2.8-6.868-4.7-6.551-8.91s1.972-8.781.106-12.632l-.986,13.313-9.65,2.207L186,209.953" transform="translate(-184.249 -201.818)"/><path d="M208.564,203.772a103.312,103.312,0,0,1,.258,12.726c-.082,1.9-.211,3.815-.47,5.705-.446,3.346-.164,4.79-3.98,5.13-3.369.305-3.9-.728-4.132-3.909a33.392,33.392,0,0,1,.7-6.386,16.119,16.119,0,0,0-.6-8.006,1.773,1.773,0,0,0-3.463.47l-.986,13.313,1.291-1.7-9.65,2.207,2.23,1.7-1.726-14.815c-.258-2.231-3.78-2.254-3.522,0l1.737,14.8a1.8,1.8,0,0,0,2.23,1.7l9.65-2.207a1.8,1.8,0,0,0,1.291-1.7l.986-13.313-3.463.47c1.726,4.86-3.78,24.817,8.382,22.8,3.663-.61,5.424-4.214,6.163-7.49,1.561-6.9,1.174-14.51.646-21.507-.176-2.242-3.7-2.266-3.522,0Z" transform="translate(-184.508 -202.07)"/></g><path d="M65.183,218.227a95.454,95.454,0,0,1,46.289-6.915c2.254.223,2.242-3.3,0-3.522a97.59,97.59,0,0,0-47.228,7.044C62.177,215.692,63.07,219.1,65.183,218.227Z" transform="translate(11.016 36.105)"/><path class="c" d="M60.52,333.35c3.815,15.261.775,31.462,3.193,47.017a3.147,3.147,0,0,0,.47,1.409,3.205,3.205,0,0,0,2.418.939A97.443,97.443,0,0,0,91.794,381.6a29.476,29.476,0,0,1,7.666-.763c3.252.294,6.433,1.82,9.662,1.362l4.344-50.961a2.488,2.488,0,0,0-.235-1.632,2.348,2.348,0,0,0-1.808-.763c-5.694-.517-11.293,1.679-17.011,1.89a73.844,73.844,0,0,1-8.675-.517c-8.394-.669-16.823.059-25.2.787" transform="translate(10.572 57.231)"/><path d="M59.092,334.1c2.23,9.709,2,19.511,2.066,29.349,0,4.3.106,8.605.528,12.913.211,2.1.129,5.459,1.69,7.044,1.8,1.831,5.459,1.5,7.689,1.6a96.711,96.711,0,0,0,12.585-.258c3.616-.317,7.149-.986,10.73-1.5,5.295-.763,9.779,1.174,14.956.986a1.808,1.808,0,0,0,1.761-1.761l2.759-32.424,1.174-13.9c.2-2.348,1.256-5.952-.716-7.795s-5.694-1.08-8.018-.822c-4.7.528-9.145,1.761-13.864,1.714-5.248,0-10.413-.857-15.684-.751s-10.706.575-16.048,1.033c-2.242.2-2.266,3.721,0,3.522,8.394-.728,16.787-1.409,25.2-.787a59.95,59.95,0,0,0,11.059.317c3.087-.34,9.779-3.04,12.5-1.773,3.721,1.726,1.69,9.192,1.421,12.291l-1.174,13.9-2.172,25.475,1.761-1.761c-3.628.129-7.044-1.268-10.624-1.374-3.111-.094-6.2.728-9.251,1.174A94.769,94.769,0,0,1,77.3,381.551a57.438,57.438,0,0,1-6.328-.059c-2.958-.27-4.7-.188-5.623-3.228-2.125-7.044-.716-16.177-.787-23.409a100.842,100.842,0,0,0-2.043-21.695c-.5-2.207-3.9-1.268-3.393.939Z" transform="translate(10.309 56.95)"/></g></g></svg>