<svg xmlns="http://www.w3.org/2000/svg" width="418.974" height="355.921" viewBox="0 0 418.974 355.921"><defs><style>.a{fill:#009245;}.b{fill:#39b54a;}.c{fill:#f0f;}.d{fill:#fcee21;}.e{fill:#fff;}</style></defs><g transform="translate(0.042 0.002)"><g transform="translate(-0.042 -0.002)"><g transform="translate(0 266.218)"><path class="a" d="M131.679,553.45c-16.127,5.871-28.739,20.027-45.566,23.417-21.566,4.37-42.735-10.232-64.748-9.737-7.075.16-15.584,3.482-16.249,10.528-.694,7.348,7.517,12.087,14.569,14.243,41.763,12.781,89.679,3.351,123.493-24.32" transform="translate(-2.59 -550.901)"/><path d="M128.4,548.409c-18.745,6.988-33.134,24.582-54.389,24.131-10.829-.228-21.226-3.992-31.565-6.8-9.256-2.535-19.755-5.182-29.341-3.016-7.7,1.739-15.637,8.255-12.408,17,3.064,8.285,13.18,11.305,20.882,13.3A137.23,137.23,0,0,0,81.31,594.79a136.943,136.943,0,0,0,60.96-28.166c2.423-2.01-1.025-5.41-3.4-3.467-29.249,23.8-69.172,33.872-106.254,27.272a127.022,127.022,0,0,1-13.777-3.249c-3.885-1.151-7.92-2.7-10.936-5.507-2.588-2.428-4.074-6.017-2.025-9.285s6.24-4.667,9.81-5.264c9.309-1.549,19.425,1.52,28.273,4.036,9.353,2.652,18.75,5.657,28.53,6.167,10.684.554,20.4-2.865,29.477-8.255,9.183-5.424,17.672-12.257,27.753-16.025,2.914-1.083,1.646-5.779-1.292-4.681Z" transform="translate(0.042 -548.2)"/></g><g transform="translate(113.39)"><path class="b" d="M250.528,269.75c-21.455-55.735-13.918-121.759,19.556-171.225,10.261-15.161,22.717-28.754,32.828-44.017C313.2,38.993,320.923,21.948,328.606,5a426,426,0,0,1,20.056,53.224,112.281,112.281,0,0,1,38.592-6.119c8.605.16,18.507,2.171,22.538,9.776q13.719-22.28,26.855-44.92L470.3,78.9c9.712,17.9,19.507,35.936,25.66,55.361,8.309,26.223,9.712,54.151,8.7,81.638-.733,19.566-2.831,39.646-11.844,57.026-8.93,17.22-24.456,31.458-28.166,50.5-2,10.237-1.093,22.581-9.314,28.992-3.676,2.865-8.557,3.817-13.209,3.589a30.522,30.522,0,0,1-20.658-9.615c-3.433-3.7-5.915-8.221-9.528-11.747-8.741-8.547-22.164-9.6-34.387-10.159l-24.917-1.151c-8.081-.374-17.108-.418-23.033,5.089-6.342,5.9-6.823,16.186-13,22.256-4.987,4.939-13.151,5.91-19.488,3s-10.727-9.4-11.854-16.3c-.67-4.089-.291-8.294-.864-12.4-3.064-22.018-31.565-35.057-31.517-57.3" transform="translate(-236.029 -2.571)"/><path d="M250.293,266.531a187.611,187.611,0,0,1,10.383-154.68c9.387-17.278,22.188-32.051,33.94-47.7,14-18.643,23.931-39.374,33.508-60.523h-4.191a428.007,428.007,0,0,1,19.813,52.646,2.455,2.455,0,0,0,2.986,1.695,111.352,111.352,0,0,1,34.751-6.007c8.217-.083,19.109.486,23.635,8.586a2.45,2.45,0,0,0,4.191,0q13.714-22.285,26.855-44.92h-4.191Q450.087,48.964,468.2,82.3c11.281,20.843,21.853,42.016,26.9,65.33,5.041,23.2,5.551,47.246,4.327,70.9-.592,11.446-1.811,22.921-4.856,33.993-2.914,10.606-7.872,20.042-14.054,29.093-5.623,8.231-11.8,16.181-16.147,25.2A55.667,55.667,0,0,0,459.61,320.9c-.826,4.492-1.112,9.062-1.879,13.559-.719,4.2-1.811,8.644-4.735,11.888-3.584,3.982-9.076,5.031-14.214,4.633a28.166,28.166,0,0,1-14.268-5.342c-4.429-3.224-7.241-7.877-10.611-12.082-6.313-7.867-15.482-11.446-25.252-12.84-11.14-1.6-22.562-1.569-33.789-2.088-9.45-.437-20.493-1.656-28.433,4.638-7.367,5.827-7.449,16.123-13.636,22.708-7.177,7.644-19.391,4.526-24.645-3.632-2.914-4.511-3.351-9.358-3.526-14.569a38.152,38.152,0,0,0-2.467-13.291c-6.046-14.957-20.629-24.281-27.127-38.884a26.145,26.145,0,0,1-2.292-10.431c-.029-3.123-4.885-3.132-4.856,0,.146,17.24,15.01,28.545,24.252,41.419a44.158,44.158,0,0,1,5.764,10.271c1.748,4.745,1.7,9.484,2,14.467.6,9.975,6.012,19.692,15.953,22.936a19.982,19.982,0,0,0,23.868-9.742c2.21-4.04,3.487-8.518,5.745-12.534a16.307,16.307,0,0,1,11.485-8.183c5.23-1.093,10.684-.631,16-.384l19.177.811c10.125.486,21.188.578,30.269,5.677,4.856,2.724,7.945,6.886,11.228,11.252A36.525,36.525,0,0,0,425.34,351.84c8.663,4.711,20.95,6.23,29.137-.3,7.542-6.012,8.056-16.4,9.183-25.218,1.326-10.349,5.487-19.279,11.169-27.952s12.277-16.9,17.176-26.131c5.483-10.319,8.61-21.707,10.334-33.221a260.692,260.692,0,0,0,2.428-35.237,287.285,287.285,0,0,0-1.622-36.732,190.188,190.188,0,0,0-7.425-36.028A231.468,231.468,0,0,0,481.6,97.356c-11.412-22.732-24.072-44.886-36.213-67.234l-9.227-16.968a2.448,2.448,0,0,0-4.191,0q-13.136,22.63-26.855,44.92H409.3c-4.934-8.8-15.817-10.824-25.082-10.97A115.276,115.276,0,0,0,345.441,53.3l2.987,1.695a437.547,437.547,0,0,0-20.3-53.8,2.439,2.439,0,0,0-4.191,0C315.3,20.2,306.562,39.213,294.422,56.272c-11.655,16.37-25.31,31.269-35.45,48.722A192.574,192.574,0,0,0,233.6,208.49a186.478,186.478,0,0,0,12.014,59.338c1.107,2.914,5.8,1.636,4.681-1.292Z" transform="translate(-233.454 0.002)"/></g><g transform="translate(287.936 92.854)"><path d="M596.533,194.893c-4.487,1.321-3.574,7.964.728,8.843,4.783.971,9.542-4.939,7.425-9.368-1.9-3.977-7.819-4.371-9.78-.233a5.856,5.856,0,0,0,.52,6.017,4.652,4.652,0,0,0,6.221,1.238,5.143,5.143,0,0,0,1.976-5.73,5.308,5.308,0,0,0-4.934-3.467c-4.511-.117-7.207,5.225-5.05,9.013,2.234,3.929,8.421,3.783,10.339-.335,1.792-3.851-.835-8.785-5.342-8.464a5.792,5.792,0,0,0-5.2,4.113,5.9,5.9,0,0,0,2.739,6.367c4.827,2.914,9.926-3.361,7.046-7.794-1.695-2.613-5.9-.18-4.191,2.428.34.52.053,1.627-.636.971a.782.782,0,0,1,.811-1.292c.748.257.631,1.622,0,1.942-1.088.578-1.836-.782-1.326-1.661.286-.486.354-.369.83-.452.17-.029.311.209.384.228q-.141-.291-.1-.126a.837.837,0,0,1-.029.121c-.141-.044,0,1.335.4,0-.068.219-.3-.9-.253-.52-.029-.253.16-.787.432-.84s.69.32.772.486c.223.486-.286,1.272-.563,1.622a2.107,2.107,0,0,1-1.612.908c-.078,0,.32.121.233.219q-.024-.486,0-.228a1.025,1.025,0,0,1-.578.612c2.991-.884,1.719-5.57-1.292-4.681Z" transform="translate(-592.883 -191.204)"/></g><g transform="translate(207.651 92.528)"><path d="M431.206,194.223c-4.487,1.321-3.574,7.964.728,8.843,4.783.971,9.542-4.939,7.425-9.368-1.9-3.977-7.818-4.371-9.78-.233a5.857,5.857,0,0,0,.52,6.036,4.652,4.652,0,0,0,6.221,1.238,5.143,5.143,0,0,0,1.977-5.725,5.308,5.308,0,0,0-4.934-3.467c-4.511-.1-7.2,5.235-5.05,9.013,2.234,3.929,8.421,3.783,10.339-.335,1.792-3.851-.835-8.785-5.342-8.464a5.792,5.792,0,0,0-5.2,4.113,5.9,5.9,0,0,0,2.739,6.366c4.827,2.914,9.926-3.361,7.046-7.794-1.695-2.613-5.9-.18-4.191,2.428.34.52.053,1.627-.636.971a.782.782,0,0,1,.811-1.292c.748.257.631,1.622,0,1.942-1.088.578-1.836-.782-1.326-1.661.286-.486.354-.369.83-.452.17-.029.311.209.384.228q-.141-.291-.1-.126a.837.837,0,0,1-.029.121c-.141-.044,0,1.335.4,0-.068.219-.3-.9-.253-.52-.029-.253.16-.787.432-.84s.69.321.772.486c.223.486-.286,1.272-.563,1.622a2.107,2.107,0,0,1-1.612.908c-.078,0,.32.121.233.219q-.024-.486,0-.228a1.024,1.024,0,0,1-.578.612c2.991-.884,1.719-5.57-1.292-4.681Z" transform="translate(-427.557 -190.534)"/></g><g transform="translate(238.322 110.762)"><path d="M493.768,235.18l16.705-2.389c3.084-.442,1.772-5.118-1.292-4.681L492.476,230.5c-3.084.442-1.772,5.118,1.292,4.681Z" transform="translate(-490.716 -228.081)"/></g><g transform="translate(140.645 188.637)"><path class="b" d="M296.059,393.4a110.366,110.366,0,0,0,5.662,57.667,12.112,12.112,0,0,0,2.482,4.4,4.439,4.439,0,0,0,4.643,1.233,5.972,5.972,0,0,0,2.579-2.617c3.977-6.5,5.444-14.195,6.483-21.741a241.932,241.932,0,0,0,2.258-32.935" transform="translate(-292.115 -390.993)"/><path d="M291.181,390.2A113.727,113.727,0,0,0,295.2,444.56c1.175,3.555,2.287,8.061,5.3,10.557a6.45,6.45,0,0,0,9.436-.864c5.3-6.57,6.736-16.186,7.838-24.281a248.724,248.724,0,0,0,2.282-33.114c0-3.127-4.856-3.127-4.856,0a241.373,241.373,0,0,1-1.248,24.5c-.777,7.6-1.617,15.443-4.191,22.683-.743,2.083-3.249,9.873-6.381,7.163-1.238-1.073-1.782-3.1-2.326-4.579q-1-2.71-1.85-5.468a107.485,107.485,0,0,1-4.472-23.31,108.866,108.866,0,0,1,1.127-26.355c.486-3.06-4.171-4.371-4.681-1.292Z" transform="translate(-289.577 -388.443)"/></g><g transform="translate(317.188 188.278)"><path class="b" d="M658.166,392.57a135.792,135.792,0,0,0,3.885,36.878c1.374,5.58,3.166,11.169,6.614,15.788,1.816,2.428,4.443,4.667,7.469,4.5a7.527,7.527,0,0,0,5.7-3.783,19.021,19.021,0,0,0,2.2-6.721c2.686-14.782,1.656-29.958.622-44.944" transform="translate(-655.679 -390.207)"/><path d="M653.177,390.067a141.428,141.428,0,0,0,1.816,27.049c1.335,8.144,3.021,16.885,7.207,24.111,1.836,3.171,4.322,6.415,7.843,7.77a8.908,8.908,0,0,0,9.61-2.171c2.661-2.637,3.618-6.371,4.244-9.941a112.017,112.017,0,0,0,1.525-13.67c.549-10.489-.175-20.993-.9-31.458-.214-3.1-5.07-3.122-4.856,0,.69,10,1.384,20.027.971,30.055-.175,4.249-.52,26.976-9.387,22.416-3.764-1.942-5.963-7.09-7.328-10.844a90.454,90.454,0,0,1-3.5-13.461,134.81,134.81,0,0,1-2.379-29.875c.092-3.127-4.764-3.122-4.856,0Z" transform="translate(-653.118 -387.704)"/></g><g transform="translate(186.904 34.747)"><path class="c" d="M400.814,76.36A117.374,117.374,0,0,1,389.79,100.5a37.634,37.634,0,0,0,7.814-1.651l13.728-3.953a1,1,0,0,0,.539-.287c.238-.306.053-.743-.136-1.078a51.253,51.253,0,0,0-6.944-9.455c-2.03-2.19-4.409-4.536-4.453-7.522" transform="translate(-387.384 -74.024)"/><path d="M395.919,73.225a118.152,118.152,0,0,1-10.776,23.557c-.884,1.457.228,3.817,2.1,3.652,4.473-.393,8.741-1.821,13.034-3.059l6.405-1.845c1.68-.486,4.011-.728,4.856-2.482,1.389-2.88-2.724-7.231-4.341-9.329-1.185-1.535-2.428-2.982-3.754-4.4-1.379-1.5-3.055-3.108-3.225-5.254-.243-3.093-5.1-3.123-4.856,0,.287,3.6,2.282,6.114,4.647,8.688a54.935,54.935,0,0,1,3.885,4.589q.748,1.015,1.457,2.069c.126.189,1.583,2.428,1.651,2.069l1.117-1.457c-1.6.85-3.71,1.122-5.449,1.622L397.633,93.1c-3.4.971-6.828,2.176-10.368,2.486l2.1,3.652A124.07,124.07,0,0,0,400.63,74.522c.971-2.977-3.705-4.249-4.681-1.292Z" transform="translate(-384.835 -71.55)"/></g><g transform="translate(299.186 42.217)"><path class="c" d="M631.014,91.852a71.444,71.444,0,0,1-9.474,13.86,1.593,1.593,0,0,0-.52,1.01c0,.675.821,1.005,1.457,1.161a194.331,194.331,0,0,0,20.177,3.705.86.86,0,0,0,.607-.073c.32-.228.189-.724,0-1.083A106.487,106.487,0,0,0,631.995,91.76" transform="translate(-618.606 -89.415)"/><path d="M626.359,88.145a72.862,72.862,0,0,1-6.313,9.941c-1.69,2.224-5.91,5.551-3,8.484,1.161,1.165,2.977,1.36,4.5,1.7q3.186.719,6.391,1.335t6.435,1.117c1.991.311,4.327.971,6.313.743a2.593,2.593,0,0,0,2.341-1.782c.738-1.86-.554-3.681-1.369-5.313q-1.374-2.734-2.914-5.386a110.065,110.065,0,0,0-7.173-10.936c-1.85-2.477-6.065-.058-4.191,2.428,2.18,2.914,4.23,5.929,6.109,9.047q1.355,2.244,2.6,4.555c.257.486,2.428,3.943,2.292,4.283l2.341-1.782c-3.123.369-7.012-.86-10.1-1.428q-2.292-.422-4.579-.9-1.369-.287-2.734-.592c-.6-.136-1.734-.675-2.273-.524q-.908-.393-.121.515.3,1.263.874,0a6.743,6.743,0,0,0,1.321-1.637c.908-1.156,1.792-2.331,2.637-3.53a74.456,74.456,0,0,0,4.808-7.9c1.457-2.758-2.724-5.216-4.191-2.428Z" transform="translate(-616.048 -86.932)"/></g><g transform="translate(32.246 48.97)"><path class="d" d="M73.013,589.75c2.428,6.415,0,13.5-1.607,20.163a1.792,1.792,0,0,0,0,1.17,1.671,1.671,0,0,0,.758.68c4.07,2.263,9.052,1.719,13.67,1.112a3.049,3.049,0,0,0,1.6-.529,2.992,2.992,0,0,0,.811-1.773A67.041,67.041,0,0,0,89.573,595.9a2.778,2.778,0,0,0-.432-1.729,2.837,2.837,0,0,0-1.569-.787l-10.621-2.744" transform="translate(-68.905 -352.325)"/><path d="M68.128,587.955c1.282,3.715,1.03,7.449.243,11.252-.355,1.714-.792,3.4-1.224,5.1-.354,1.4-.971,2.948-.733,4.4.456,3.04,4.589,4.036,7.139,4.419a33.5,33.5,0,0,0,10.043-.311c3.4-.539,4.23-2.744,4.774-5.857a71.5,71.5,0,0,0,1.078-11.2c.044-2.953.029-5.866-3.205-6.993-3.6-1.253-7.508-1.942-11.2-2.914-3.025-.782-4.317,3.885-1.292,4.682l7.974,2.059c1.141.3,2.477.272,2.875,1.321s0,3.064-.073,4.152a60.434,60.434,0,0,1-1,8.508c-.3,1.559,0,1.394-1.457,1.583-1.238.16-2.491.287-3.739.34a22.026,22.026,0,0,1-3.3-.053,12.758,12.758,0,0,1-2.137-.413c-.374-.107-1.345-.68-1.675-.631q-.874-.592,0,.709l.2-.835a10.24,10.24,0,0,0,.422-1.68c.321-1.272.651-2.54.942-3.822,1.141-5.007,1.743-10.164.039-15.113-1.01-2.914-5.706-1.675-4.681,1.292Z" transform="translate(-66.36 -349.884)"/><path class="d" d="M153.256,605.489a30.7,30.7,0,0,1-.86,11.655,1.665,1.665,0,0,0,0,1.272,1.34,1.34,0,0,0,.69.486c3.341,1.326,6.668-2.161,10.251-2.428,1.369-.1,2.734.291,4.108.282s2.914-.592,3.375-1.889a4.429,4.429,0,0,0,.078-1.943l-.971-9.028a1.311,1.311,0,0,0-1.758-1.457l-11.218,1.481" transform="translate(-110.551 -358.807)"/><path d="M148.354,603.028a35.748,35.748,0,0,1-.772,11.019c-.486,2.477.486,4.337,3,4.963,2.685.67,5.162-.6,7.556-1.632a8.134,8.134,0,0,1,3.943-.864,14.952,14.952,0,0,0,4.414.073,5.245,5.245,0,0,0,4.371-4.764c.228-3.157-.607-6.731-.971-9.878-.3-2.579-1.36-4.482-4.235-4.371-3.715.16-7.532.971-11.218,1.481-3.055.4-3.093,5.264,0,4.856l7.479-.971c.316-.044,3.725-.369,3.739-.486q-.971-1.641-.573-.048l.1.9c.262,2.4.622,4.813.772,7.221.068,1.068.112,1.258-1.025,1.394a15.971,15.971,0,0,1-2.875-.257,11.341,11.341,0,0,0-5.172,1c-.86.355-1.69.787-2.559,1.127a18.733,18.733,0,0,0-2.18.549q-.9-.155.083,1.005.238-.874.423-1.758c.228-1.1.4-2.21.524-3.326a33.354,33.354,0,0,0,0-7.226c-.321-3.079-5.182-3.108-4.856,0Z" transform="translate(-108.077 -356.347)"/><path class="d" d="M219.919,578.975l4.808,11.878a1.054,1.054,0,0,0,.3.486c.33.248.8.044,1.151-.165l7.663-4.526a8.133,8.133,0,0,0,2.71-2.176c1.714-2.477.248-5.827-1.233-8.455l-3.166-5.614c-.374-.66-.894-1.413-1.656-1.4-.67,0-1.151.607-1.632,1.068-1.306,1.253-3.147,1.729-4.885,2.229s-3.569,1.141-4.667,2.583-1.005,3.885.612,4.711" transform="translate(-144.658 -341.651)"/><path d="M215.013,577.09c1.593,3.938,3,8.032,4.808,11.878,1.889,4.011,5.279,1.6,8.071-.049,2.647-1.559,6.444-3.055,8.168-5.75,1.943-3.006.937-6.566-.486-9.537-.894-1.841-1.981-3.6-2.987-5.376-.724-1.287-1.384-2.783-2.681-3.594a3.71,3.71,0,0,0-3.812-.107c-.845.486-1.423,1.306-2.253,1.792a10.688,10.688,0,0,1-2.321.869c-2.914.879-6.056,1.884-7.381,4.856a5.551,5.551,0,0,0,2,7.071c2.617,1.719,5.055-2.481,2.428-4.191-1.87-1.229,5.342-3.4,5.716-3.55a8.58,8.58,0,0,0,3.715-2.161q1.195-.971-.529-.16l.452.8a11.793,11.793,0,0,0,1.583,2.807c1.35,2.394,4.541,6.575,1.428,8.741a55.543,55.543,0,0,1-9.134,5.313l1.87-.243-.563-.087,1.457,1.117A36.957,36.957,0,0,1,222.1,581.7l-2.428-5.939c-1.156-2.86-5.857-1.607-4.681,1.292Z" transform="translate(-142.092 -339.121)"/><path class="d" d="M465.39,109.95c17.39-4.57,35.358-5.9,54.2-2.336a35.888,35.888,0,0,1-2.428,11.014c-1.525,3.458-4.128,6.585-7.649,7.95a6.245,6.245,0,0,1-3.987.359c-2.18-.646-3.487-2.875-4.172-5.046a18.818,18.818,0,0,1,1.515-14.685,21.047,21.047,0,0,1-6.949,14.826c-1.607,1.433-3.763,2.666-5.827,2.059a5.935,5.935,0,0,1-2.914-2.292A13.636,13.636,0,0,1,485,110.1a23.252,23.252,0,0,1-1.044,13c-.627,1.637-1.569,3.322-3.186,3.992a6.058,6.058,0,0,1-4.2-.16,15.1,15.1,0,0,1-9.955-14.481" transform="translate(-271.613 -103.277)"/><path d="M463.484,109.852a121.775,121.775,0,0,1,52.933-2.336l-1.807-2.341c-.622,6-2.02,14.413-8.629,16.744-3.832,1.35-5.055-2.914-5.444-5.9A16.7,16.7,0,0,1,502.431,106l-4.526-1.224a18.653,18.653,0,0,1-6.24,13.112c-5.764,4.948-7.857-5.57-6.852-9.576h-4.681a21.194,21.194,0,0,1-.359,9.615,10.7,10.7,0,0,1-1.5,3.6c-1.093,1.457-2.826.971-4.3.355a12.781,12.781,0,0,1-7.459-11.869c.044-3.127-4.813-3.127-4.856,0-.107,7.731,5.449,15.938,13.418,17.235,10.2,1.656,10.985-13.6,9.712-20.226-.452-2.394-4.123-2.234-4.681,0-1.559,6.23,1.423,19.367,10.4,17,3.812-1.015,6.872-4.613,8.843-7.857a24.184,24.184,0,0,0,3.4-11.364c.126-2.4-3.4-3.317-4.526-1.224a21.853,21.853,0,0,0-2.326,14.229c.772,4.322,3.293,9.227,8.256,9.324,4.565.1,8.586-3.288,10.994-6.876,2.977-4.434,3.744-9.853,4.283-15.054a2.428,2.428,0,0,0-1.782-2.341,127.468,127.468,0,0,0-55.492,2.336c-3.021.787-1.743,5.468,1.292,4.681Z" transform="translate(-269.062 -100.838)"/></g><g transform="translate(88.285 69.695)"><path d="M713.931,208.993q33.634-30.162,66.3-61.358c2.263-2.161-1.175-5.594-3.433-3.433q-32.668,31.2-66.3,61.368c-2.331,2.093,1.112,5.517,3.433,3.433Z" transform="translate(-453.331 -143.515)"/><path d="M748.362,267.044l50.47-31.148c2.656-1.637.219-5.827-2.428-4.191l-50.49,31.148c-2.656,1.637-.219,5.827,2.428,4.191Z" transform="translate(-471.358 -188.687)"/><path d="M750.2,339.1l26.063,3.72,12.8,1.826c4.132.588,8.353,1.5,12.534,1.554,3.127.044,3.127-4.812,0-4.856-4.069-.053-8.173-.942-12.194-1.515L776.6,338l-25.116-3.584c-3.054-.437-4.371,4.244-1.292,4.681Z" transform="translate(-473.245 -241.698)"/><path d="M269.948,198.994l-23.174-25.369c-6.915-7.571-13.568-16.618-22.513-21.911a2.452,2.452,0,0,0-2.943.379,5.058,5.058,0,0,0-1.423,4.055c.34,3.074,5.2,3.108,4.856,0v-.617l-2.943.379c4.22,2.5,7.624,5.959,10.926,9.542,3.773,4.089,7.508,8.217,11.262,12.325l22.518,24.655c2.112,2.312,5.541-1.131,3.433-3.433Z" transform="translate(-201.357 -147.565)"/><path d="M182.962,226.49l56.881,29.943c2.763,1.457,5.22-2.734,2.428-4.191L185.414,222.3c-2.763-1.457-5.22,2.734-2.428,4.191Z" transform="translate(-181.756 -183.884)"/><path d="M195.928,328.892q26.738-1.4,53.258-5.2c3.084-.437,1.772-5.118-1.292-4.681q-25.859,3.681-51.961,5.026c-3.108.165-3.127,5.021,0,4.856Z" transform="translate(-187.846 -233.771)"/></g><g transform="translate(238.322 103.215)"><path class="e" d="M964.754,210.1l-19.573,2.787.677,13,23.322-1.138Z" transform="translate(-942.339 -207.324)"/><path d="M961.844,205.254l-19.568,2.8a2.869,2.869,0,0,0-2.088,2.742l.677,13a2.882,2.882,0,0,0,2.844,2.844l23.322-1.138a2.875,2.875,0,0,0,2.742-3.6l-4.431-14.659c-1.058-3.493-6.547-2.008-5.484,1.513l4.431,14.659,2.742-3.6-23.322,1.138,2.844,2.844-.683-13.009-2.088,2.742,19.568-2.8C966.963,210.215,965.427,204.743,961.844,205.254Z" transform="translate(-940.186 -205.221)"/></g></g></g></svg>