<svg xmlns="http://www.w3.org/2000/svg" width="145.446" height="145.446" viewBox="0 0 145.446 145.446"><defs><style>.a{fill:#e68cbe;}.b{fill:#fff;}.c{fill:#ff5a5a;}</style></defs><path class="a" d="M109.994,149.765H49.77A39.77,39.77,0,0,1,10,109.994V49.77A39.77,39.77,0,0,1,49.77,10h60.224a39.77,39.77,0,0,1,39.77,39.77v60.224A39.77,39.77,0,0,1,109.994,149.765Z" transform="translate(-7.159 -7.159)"/><path class="b" d="M141.5,168.766H81.271A27.271,27.271,0,0,1,54,141.5V81.271A27.271,27.271,0,0,1,81.271,54H141.5a27.271,27.271,0,0,1,27.271,27.271V141.5A27.271,27.271,0,0,1,141.5,168.766Z" transform="translate(-38.66 -38.66)"/><circle class="c" cx="36" cy="36" r="36" transform="translate(36.723 36.723)"/><circle class="b" cx="23" cy="23" r="23" transform="translate(49.723 49.723)"/><circle class="c" cx="7.954" cy="7.954" r="7.954" transform="translate(102.054 27.484)"/><path d="M102.835,145.446H42.611A42.66,42.66,0,0,1,0,102.835V42.611A42.66,42.66,0,0,1,42.611,0h60.224a42.66,42.66,0,0,1,42.611,42.611v60.224A42.66,42.66,0,0,1,102.835,145.446ZM42.611,5.681a36.972,36.972,0,0,0-36.93,36.93v60.224a36.972,36.972,0,0,0,36.93,36.93h60.224a36.972,36.972,0,0,0,36.93-36.93V42.611a36.972,36.972,0,0,0-36.93-36.93Z"/><path d="M134.336,164.448H117.2a2.841,2.841,0,1,1,0-5.681h17.139a24.458,24.458,0,0,0,24.43-24.43V74.112a24.458,24.458,0,0,0-24.43-24.43H74.112a24.458,24.458,0,0,0-24.43,24.43v60.224a24.458,24.458,0,0,0,24.43,24.43H91.44a2.841,2.841,0,1,1,0,5.681H74.112A30.146,30.146,0,0,1,44,134.336V74.112A30.146,30.146,0,0,1,74.112,44h60.224a30.146,30.146,0,0,1,30.112,30.112v60.224A30.146,30.146,0,0,1,134.336,164.448Z" transform="translate(-31.501 -31.501)"/><path d="M248.841,453.681a2.842,2.842,0,1,1,2.008-.832A2.862,2.862,0,0,1,248.841,453.681Z" transform="translate(-176.118 -320.734)"/><path d="M160.956,158.34a2.841,2.841,0,0,1-1.95-4.907l.126-.118a2.841,2.841,0,0,1,3.884,4.146l-.111.1A2.831,2.831,0,0,1,160.956,158.34Z" transform="translate(-113.198 -109.212)"/><path d="M157.2,196.4a39.213,39.213,0,0,1-34.111-58.535,2.841,2.841,0,1,1,4.941,2.806A33.525,33.525,0,1,0,157.2,123.681,33.146,33.146,0,0,0,141.85,127.4a2.841,2.841,0,0,1-2.606-5.049A39.206,39.206,0,1,1,157.2,196.4Z" transform="translate(-84.479 -84.479)"/><path d="M191.567,217.133a25.567,25.567,0,1,1,25.567-25.567A25.6,25.6,0,0,1,191.567,217.133Zm0-45.452a19.885,19.885,0,1,0,19.885,19.885A19.908,19.908,0,0,0,191.567,171.681Z" transform="translate(-118.844 -118.844)"/><path d="M360.045,108.34A10.795,10.795,0,1,1,370.84,97.545,10.807,10.807,0,0,1,360.045,108.34Zm0-15.908a5.113,5.113,0,1,0,5.113,5.113A5.119,5.119,0,0,0,360.045,92.431Z" transform="translate(-250.037 -62.107)"/></svg>