<svg xmlns="http://www.w3.org/2000/svg" width="122.082" height="122.239" viewBox="0 0 122.082 122.239"><defs><style>.a{fill:#ffe100;}.b{fill:#ffa800;}.c{fill:#fff;}.d{fill:#63d3fd;}.e{fill:#3db9f9;}</style></defs><g transform="translate(-0.323)"><g transform="translate(2.358 2.04)"><path class="a" d="M39.5,102.108h0L58.473,87.033a14.855,14.855,0,0,1,18.489,0l18.976,15.075L81.766,90.848l44.958-29.506L78.24,12.772a14.86,14.86,0,0,0-21.043,0L8.713,61.342,53.669,90.848Z" transform="translate(-8.713 -8.406)"/><path class="a" d="M17.1,226.585V291.81l42.922-35.719Z" transform="translate(-15.062 -173.649)"/><path class="a" d="M309.81,256.092l44.957,35.719V226.586Z" transform="translate(-236.756 -173.65)"/><path class="a" d="M58.473,322.392,8.713,361.926H126.725L76.962,322.392a14.854,14.854,0,0,0-18.489,0" transform="translate(-8.713 -243.766)"/></g><path class="b" d="M469.944,230.587V291.8h6.1V226.58Z" transform="translate(-355.679 -171.606)"/><path class="c" d="M14.814,230.587V291.8H8.71V226.58Z" transform="translate(-6.352 -171.606)"/><g transform="translate(0.323)"><path d="M310.114,272.666H295.871a2.038,2.038,0,0,1,0-4.077h14.243a2.038,2.038,0,0,1,0,4.077" transform="translate(-222.622 -203.422)"/><path d="M167.056,272.666h-30.52a2.038,2.038,0,0,1,0-4.077h30.52a2.038,2.038,0,0,1,0,4.077" transform="translate(-101.946 -203.422)"/><path d="M150.779,239.062H136.536a2.038,2.038,0,0,1,0-4.077h14.243a2.038,2.038,0,0,1,0,4.077" transform="translate(-101.946 -177.971)"/><path d="M259.3,239.062h-30.52a2.038,2.038,0,0,1,0-4.077H259.3a2.038,2.038,0,0,1,0,4.077" transform="translate(-171.811 -177.971)"/><path d="M8.2,353.472H114.533l-45.184-35.9a12.778,12.778,0,0,0-15.964,0Zm112.172,4.077H2.361A2.039,2.039,0,0,1,1.1,353.912l49.76-39.534a16.826,16.826,0,0,1,21.018,0l49.76,39.534a2.039,2.039,0,0,1-1.264,3.636Z" transform="translate(-0.326 -235.31)"/><path d="M306.928,249.892l39.451,31.343V224Zm41.485,37.6a2.022,2.022,0,0,1-1.264-.442l-44.958-35.717a2.042,2.042,0,0,1,.148-3.3L347.3,218.523a2.036,2.036,0,0,1,3.15,1.706v65.225a2.038,2.038,0,0,1-2.035,2.038Z" transform="translate(-228.366 -165.253)"/><path d="M5.567,54.644,47.2,81.969l3.652-2.9a16.826,16.826,0,0,1,21.018,0l3.652,2.9,41.636-27.325L70.447,7.847a12.824,12.824,0,0,0-18.165,0ZM89.581,97.78a2.012,2.012,0,0,1-1.261-.442L74.148,86.078a.206.206,0,0,1-.039-.033l-4.763-3.783a12.778,12.778,0,0,0-15.964,0l-4.763,3.785c-.014.01-.026.02-.039.031L34.409,97.338a2.036,2.036,0,0,1-2.527-3.194l11.962-9.5L1.243,56.68a2.038,2.038,0,0,1-.324-3.145L49.4,4.963a16.892,16.892,0,0,1,23.92,0l48.485,48.572a2.038,2.038,0,0,1-.324,3.145l-42.6,27.959,11.962,9.5a2.039,2.039,0,0,1-1.266,3.636Z" transform="translate(-0.323)"/></g><path class="d" d="M174.206,176.179H100.957V203.1l22.575,14.816,4.8-3.816a14.858,14.858,0,0,1,18.491,0l4.8,3.816L174.206,203.1V176.179Z" transform="translate(-76.218 -133.433)"/><path class="e" d="M377.7,176.179V207.1l6.1-4.005v-26.92Z" transform="translate(-285.813 -133.433)"/><g transform="translate(0.323 40.706)"><path d="M96.64,195.631l20.428,13.408,3.652-2.9a16.817,16.817,0,0,1,21.018,0l3.652,2.9,20.428-13.408V171.851H96.64Zm48.637,17.957a2.026,2.026,0,0,1-1.264-.442l-4.8-3.818a12.775,12.775,0,0,0-15.964,0l-4.8,3.816a2.027,2.027,0,0,1-2.378.108L93.491,198.437a2.039,2.039,0,0,1-.92-1.7V169.812a2.036,2.036,0,0,1,2.035-2.038h73.249a2.036,2.036,0,0,1,2.035,2.038v26.922a2.039,2.039,0,0,1-.92,1.7l-22.577,14.816a2.036,2.036,0,0,1-1.115.334Z" transform="translate(-70.189 -167.774)"/><path d="M232.6,205.459H220.4a2.038,2.038,0,0,1,0-4.077H232.6a2.038,2.038,0,0,1,0,4.077" transform="translate(-165.46 -193.228)"/><path d="M4.393,363.036A2.035,2.035,0,1,1,2.359,361a2.037,2.037,0,0,1,2.035,2.038" transform="translate(-0.324 -314.117)"/><path d="M2.359,287.491a2.035,2.035,0,0,1-2.035-2.038V263.031a2.035,2.035,0,1,1,4.069,0v18.2l39.451-31.344L4.393,224v22.725a2.035,2.035,0,1,1-4.069,0v-26.5a2.033,2.033,0,0,1,3.15-1.7L48.432,248.03a2.04,2.04,0,0,1,.148,3.3L3.622,287.05a2.036,2.036,0,0,1-1.263.44" transform="translate(-0.324 -205.959)"/></g></g></svg>