<svg xmlns="http://www.w3.org/2000/svg" width="165.645" height="262.245" viewBox="0 0 165.645 262.245"><defs><style>.a{fill:#c1272d;}.b{stroke:#000;stroke-miterlimit:10;stroke-width:10px;}.c{fill:#39b54a;}.d{fill:#fcee21;}.e{fill:#ed1c24;}</style></defs><g transform="translate(2.237 0)"><g transform="translate(0.001 5.15)"><path class="a" d="M42.431,286.361c-2.514-15.12-13.255-27.333-20.334-40.924-8.807-16.908-11.961-36.087-15-54.917a139.456,139.456,0,0,1-2.129-18.6A93.2,93.2,0,0,1,6.7,152.653c1.662-9,4.286-17.966,9.176-25.7,9.731-15.375,27.706-24.328,45.818-25.995S98,104.111,114.608,111.5a72.615,72.615,0,0,1,14.982,8.466c12.521,9.634,19.215,24.948,23.951,40.02a248.619,248.619,0,0,1,9.707,45.291c1.666,14.082,2.027,28.825-3.386,41.925-7.205,17.386-23.789,29.473-41.544,35.633s-36.812,7.229-55.582,8.231c-6.366.341-13.522.405-18.112-4.022" transform="translate(-2.938 -61.914)"/><path d="M41.447,282.846c-3.009-17.236-15.7-30.41-22.751-45.956-7.8-17.18-10.575-36.395-13.38-54.9A93.869,93.869,0,0,1,5.43,151.73c1.589-9.2,4.083-18.441,9.05-26.441,8.555-13.762,23.882-22,39.553-24.677,18.956-3.244,38.6,1.735,55.91,9.358,8.109,3.572,15.756,7.846,21.761,14.491,5.624,6.224,9.687,13.786,12.821,21.53,7.132,17.6,11.353,36.731,13.644,55.549,2.157,17.764,2.153,36.561-8.6,51.75-9.391,13.271-24.385,21.725-39.736,26.218a152.858,152.858,0,0,1-28.6,5.117c-4.866.462-9.772.791-14.67,1.074-4.266.239-8.584.645-12.861.482-3.8-.146-7.7-.888-10.583-3.54-1.918-1.764-4.793,1.1-2.867,2.867,6.487,5.973,15.935,4.825,24.052,4.375a295.981,295.981,0,0,0,30.524-2.9c17.642-2.838,35-8.92,48.571-20.886a58.105,58.105,0,0,0,14.771-19.71c3.872-8.746,5.251-18.295,5.235-27.8a176.173,176.173,0,0,0-3.053-29.814A248.359,248.359,0,0,0,153,157.954c-5.032-16.361-12.176-33.2-26.489-43.559-7.967-5.766-17.609-9.61-26.866-12.764a107.663,107.663,0,0,0-29.372-5.908c-17.395-.872-35.247,3.9-48.681,15.29C6.991,123.384,1.549,142.733.187,161.2c-.778,10.514,1.03,20.837,2.721,31.172a268.776,268.776,0,0,0,6.009,29.133,113.227,113.227,0,0,0,10.749,26.076C24.231,255.51,29.62,262.99,33.5,271.29a50.315,50.315,0,0,1,4.055,12.634c.446,2.567,4.355,1.48,3.909-1.079Z" transform="translate(-0.001 -58.938)"/><path d="M77.666,255.059c2.4,2.664,7.2,2.4,9.054-.779s.235-7.643-3.491-8.454a5.282,5.282,0,0,0-6.289,6.605,4.843,4.843,0,0,0,7.959,1.8c3.118-3.357-1.435-8.92-5.316-6.488-2.2,1.387-.17,4.9,2.027,3.5.531-.337-.053.028-.166-.057s.215.138.158.045c0-.032.337.369.3.312-.174-.259.405,0-.045-.028.207,0-.462.081-.231.061-.491.045-.738,0-.843-.365a1.151,1.151,0,0,1,.572-1.366c1.245-.608,2.263.7,2.027,1.845-.276,1.448-2.064,1.411-2.887.5-1.752-1.942-4.614.933-2.867,2.867Z" transform="translate(-45.598 -148.169)"/><path d="M267,241.8a4.929,4.929,0,0,0-3.5,8.336c3.1,3.078,8.085,1.354,9.4-2.559,1.253-3.714-1.788-9.224-6.2-7.12a3.792,3.792,0,0,0-2.068,4.74c.71,1.9,2.668,2.7,4.48,3.09a2.056,2.056,0,0,0,2.567-1.954,5.608,5.608,0,0,0-2.453-4.679,2.044,2.044,0,0,0-2.773.726,2.072,2.072,0,0,0,.726,2.773,1.293,1.293,0,0,1,.446,1.176l2.567-1.954a9.637,9.637,0,0,0-1.622-.523q-.166-.2-.146-.069a.653.653,0,0,1-.126.438c-.032-.053.28-.146.288-.138a2.23,2.23,0,0,1,.288,2.648,1.6,1.6,0,0,1-2.352.669.839.839,0,0,1,.478-1.541c2.611.041,2.611-4.014,0-4.055Z" transform="translate(-155.838 -144.772)"/><path d="M142.4,314.221l16.624-.689c2.6-.109,2.615-4.164,0-4.055l-16.624.689C139.8,310.276,139.788,314.33,142.4,314.221Z" transform="translate(-83.501 -186.081)"/><path d="M137.83,571.712a93.878,93.878,0,0,0,3.325,23.472,2.036,2.036,0,0,0,3.982-.539l.588-25.07c.053-2.23-3.58-2.838-3.982-.539a54.739,54.739,0,0,0-.264,17.435c.369,2.575,4.278,1.48,3.909-1.079a48.46,48.46,0,0,1,.264-15.278l-3.982-.539-.588,25.07,3.982-.539a89.34,89.34,0,0,1-3.179-22.4c-.036-2.607-4.091-2.615-4.055,0Z" transform="translate(-81.944 -339.532)"/><path d="M258.47,556.721a29.232,29.232,0,0,0,6.269,21.559c1.123,1.427,3.479.195,3.463-1.435a162.768,162.768,0,0,0-2.4-25.97c-.405-2.263-4.055-1.719-3.982.539l.43,12.926,3.982-.539-4.679-11.171c-.993-2.372-4.918-1.33-3.909,1.079l4.679,11.171c.811,1.934,4.055,1.958,3.982-.539l-.43-12.926-3.982.539a155.946,155.946,0,0,1,2.242,24.892l3.463-1.435a25.285,25.285,0,0,1-5.081-18.692c.3-2.587-3.751-2.563-4.055,0Z" transform="translate(-153.077 -328.738)"/><path class="b" d="M13.146,75.235,7.79,39.59C25.9,26.437,45.778,14.192,71.939,5.15c21.307,3.787,43.422,13.786,65.909,26.72L132.5,65.715C90.412,54.423,50.316,55.619,13.146,75.235Z" transform="translate(-4.632 -5.15)"/><path class="c" d="M191.746,443.6a35.065,35.065,0,0,0-5.441.32,5.948,5.948,0,0,1-3.994-.507c-1.314.187-2.579.73-3.888.957-1.192.2-2.4.264-3.6.474-2.6.458-5.117,1.269-7.744,1.622a12.936,12.936,0,0,1-3.811.2,3.045,3.045,0,0,1-1.095-.519c.028.186-.989.247-1.4.357-2.121.551-4.5,1.342-6.419.345-1.265.268-2.506.839-3.791,1.026-1.107.162-2.2.061-3.309.166a14.125,14.125,0,0,0-3.925.811,16.625,16.625,0,0,1-4.2,1.391c-1.695.195-2.522-.527-4.022-.884-.584-.138-.507.061-1.435.292a4.509,4.509,0,0,1-3.361-.308l-.377.105a8.679,8.679,0,0,1-2.246.405,4.055,4.055,0,0,1-1.857-.385,13.517,13.517,0,0,1-4.359.811,5.045,5.045,0,0,0-2.453.235c-.888.308-1.752.665-2.656.929a2.631,2.631,0,0,1-2.956-.969,46.309,46.309,0,0,1-4.266,1.869,2.616,2.616,0,0,1-1.281.065,13.416,13.416,0,0,1-5.137,1.845,2.376,2.376,0,0,1-2.064-.811,5.032,5.032,0,0,1-2.542-.47c-.191.024-.381.045-.58.053a2.624,2.624,0,0,1-1.358-.308l-.332.247a2.433,2.433,0,0,1-1.808.539,8.638,8.638,0,0,1-.916.316,2.68,2.68,0,0,1-1.581-.065,4.343,4.343,0,0,1-3.576.405,3.338,3.338,0,0,1-.941-.519,3.815,3.815,0,0,1-2.218-.049c-.077-.024-.154-.057-.231-.089a18,18,0,0,1-1.589.924,3.011,3.011,0,0,1-.292.126,48.332,48.332,0,0,1-5.012,3.6,2.664,2.664,0,0,1-2.433.235c-.365.353-.738.689-1.131,1A3.191,3.191,0,0,1,71.59,460l4.168,7.874a74.416,74.416,0,0,1,4.837,10.3c.811,2.331,1.419,4.789,2.81,6.828,3.171,4.647,9.419,5.863,15.027,6.329a133.075,133.075,0,0,0,63.9-10.595c9.095-3.97,17.841-9.038,24.884-16.028a47.018,47.018,0,0,0,12.813-21.81C197.265,443.127,194.52,443.614,191.746,443.6Z" transform="translate(-42.563 -265.406)"/><path class="c" d="M190.813,442.1c-2.409,0-4.951.624-7.331.405-.811-.069-1.484-.588-2.271-.588a19.26,19.26,0,0,0-3.564.888c-2.477.5-4.963.73-7.436,1.314s-6.378,2-8.665.6a.629.629,0,0,0-.738.093,9.531,9.531,0,0,1-2.433.543,8.822,8.822,0,0,1-4.209.251c-1.857-.405-3.592.718-5.535.839a23.8,23.8,0,0,0-5.762.689c-2.364.738-4.286,2.1-6.852,1.293a7.353,7.353,0,0,0-2.027-.6,15.707,15.707,0,0,0-1.971.406c-1.034.13-1.784-.381-2.737-.406-1.265,0-2.323.649-3.649.373a4.106,4.106,0,0,0-2.331.191,18.275,18.275,0,0,1-3.791.349c-2.141.089-4.809,2.433-6.609.405a.624.624,0,0,0-.738-.093,20.229,20.229,0,0,1-4.12,1.808c-.637.114-.929-.02-1.427.126-.811.239-1.581.811-2.38,1.131a4.135,4.135,0,0,1-3.264.308c-.345-.134-.787-.385-1.168-.491-1.257-.349-3.053-.134-4.257-.653a.616.616,0,0,0-.612,0A7.038,7.038,0,0,1,91.4,452.3c-1.046.012-2,.592-3.1.576s-1.8-.624-2.838-.661a7.61,7.61,0,0,0-2.133-.138c-2.084.576-3.974,2.749-5.729,3.913a3.855,3.855,0,0,1-2.153.811,6.373,6.373,0,0,0-1.314.085c-1.362.584-1.776,1.756-3.5,1.6a.612.612,0,0,0-.527.916l3.714,6.978a106.339,106.339,0,0,1,6.333,14.272,13.949,13.949,0,0,0,9.6,9.058c5.271,1.622,11.1,1.691,16.563,1.772a134.052,134.052,0,0,0,37.234-4.707c11.677-3.183,23.314-7.834,33.4-14.6,10.676-7.165,19.523-17.334,22.735-30a.612.612,0,0,0-.588-.77c-2.761.251-5.5.673-8.28.706a.608.608,0,1,0,0,1.216c2.777-.032,5.518-.454,8.28-.706l-.588-.77c-5.932,23.4-29.713,35.937-51.048,42.521a132.9,132.9,0,0,1-36,5.871,96.62,96.62,0,0,1-17.322-.811c-5.5-.86-10.441-3.009-12.57-8.486-1.16-2.972-2.027-5.989-3.422-8.88-.953-1.995-2-3.941-3.041-5.887l-3.925-7.355-.527.916c1.926.178,2.838-1.216,4.533-1.443,2.271-.328,4.026-1.861,5.823-3.244a8.563,8.563,0,0,1,2.721-1.743,9.412,9.412,0,0,1,2.267.219,11.806,11.806,0,0,0,2.327.6c.937,0,1.744-.454,2.66-.527a14.054,14.054,0,0,0,2.291-.284c.714-.166,1.435-.624,2.1-.766a10.128,10.128,0,0,1,3,.555,11.709,11.709,0,0,1,2.1.7c1.841.71,3.909-.43,5.575-1.107,1.16-.474,2.384-.592,3.552-1.079,1.087-.45,2.129-1.006,3.2-1.48l-.738-.093c1.435,1.622,3.013,1.33,4.866.677,2.21-.77,4.4-.734,6.7-1.127,1.342-.231,2.546.093,3.892-.073a14.5,14.5,0,0,1,1.65-.373,5.77,5.77,0,0,1,1.038.272,6.161,6.161,0,0,0,2.384,0,5.026,5.026,0,0,1,1.6-.268,9.083,9.083,0,0,1,1.768.556c2.141.661,4.022-.114,6.009-.908,2.587-1.038,5.076-.811,7.748-1.216,1.087-.166,2.169-.811,3.244-.88,1.216-.089,2.348.405,3.6.272,1.18-.134,2.291-.531,3.446-.774a3.555,3.555,0,0,0,1.666-.511l-.738.093c1.837,1.119,4.055.612,6.082.272,3.159-.535,6.2-1.423,9.387-1.825a24.974,24.974,0,0,0,3.5-.758c1.253-.345,1.748-.024,2.932.182,2.51.442,5.4-.349,7.963-.349a.608.608,0,0,0,.012-1.2Z" transform="translate(-41.63 -264.514)"/><path d="M62.458,478.746a.608.608,0,1,0-.608-.608A.608.608,0,0,0,62.458,478.746Z" transform="translate(-36.772 -285.995)"/><path d="M59.65,478.083a16.04,16.04,0,0,1,8.43-.88c.766.126,1.095-1.046.324-1.172a17.236,17.236,0,0,0-9.074.88c-.726.276-.405,1.452.324,1.172Z" transform="translate(-35.03 -284.954)"/><path class="d" d="M66.694,476.9a212.355,212.355,0,0,1,24.211-2.25A1.958,1.958,0,0,1,92,474.82a2.373,2.373,0,0,1,.835,1.671,41.866,41.866,0,0,1,.714,6.706,5.125,5.125,0,0,1-.312,2.295c-.592,1.269-2,1.727-3.272,2.027a70.206,70.206,0,0,1-11.556,1.727,6.95,6.95,0,0,1-2.838-.231c-2.295-.839-3.365-3.629-4.529-5.96a24.734,24.734,0,0,0-5.081-6.893" transform="translate(-39.216 -284.271)"/><path class="d" d="M65.945,476.57q8.851-1.322,17.772-1.914,2.348-.154,4.7-.251c1.739-.073,2.725.276,3.045,2.076.446,2.526,1.727,7.805-1.216,9.115-2.433,1.083-5.559,1.334-8.178,1.683-2.867.381-6.861,1.387-8.985-1.091-1.443-1.683-2.133-3.925-3.244-5.823a26.226,26.226,0,0,0-4.367-5.555c-.56-.547-1.423.312-.86.86A29.367,29.367,0,0,1,70.336,484c1.054,2.092,2.356,4.367,4.866,4.866,3.122.633,7.1-.336,10.214-.892,2.2-.405,5.75-.588,7.2-2.66,1.5-2.145.523-6.082.166-8.43-.146-.953-.195-2.344-.908-3.114-.88-.949-2.271-.645-3.426-.6a217.629,217.629,0,0,0-22.8,2.21c-.77.114-.442,1.285.324,1.172Z" transform="translate(-38.305 -283.356)"/><path class="d" d="M133.49,500.418c5.729,1.216,11.548-1.269,17.395-1.671,1.91-.13,4.14.126,5.19,1.723a5.831,5.831,0,0,1,.7,1.9,59.146,59.146,0,0,1,1.184,6.779.637.637,0,0,1-.726.847,159.274,159.274,0,0,1-18.347.324,1.419,1.419,0,0,1-1.695-1.188l-2.684-8.446" transform="translate(-79.364 -298.592)"/><path class="d" d="M132.422,500.088c4.274.811,8.409-.122,12.61-.929,2.331-.45,5.068-1.164,7.444-.592,2.867.689,3.065,3.957,3.5,6.423q.13.754.243,1.512c.178,1.216.616,1.76-.685,2.027a25.446,25.446,0,0,1-3.986.231q-3.787.17-7.582.162-1.8,0-3.592-.049a12.161,12.161,0,0,1-1.995-.061c-1.123-.231-1.31-.669-1.752-1.525-1.164-2.267-1.658-5.243-2.433-7.676-.235-.742-1.411-.426-1.172.324l1.7,5.372a14.192,14.192,0,0,0,1.318,3.84,2.028,2.028,0,0,0,1.472.831,28,28,0,0,0,5.251.154q5.19.053,10.372-.235c1.314-.073,4.18.434,4.533-1.346.223-1.123-.341-2.8-.531-3.888a22.174,22.174,0,0,0-1.079-4.675,4.672,4.672,0,0,0-3.953-2.713c-2.668-.373-5.531.341-8.134.851-3.73.73-7.436,1.5-11.236.787-.766-.146-1.095,1.026-.324,1.172Z" transform="translate(-78.459 -297.674)"/><path class="d" d="M195.09,525.832l17.155-1.622a2.433,2.433,0,0,1,1.5.178,2.463,2.463,0,0,1,.888,1.683l2.267,10.258a1.282,1.282,0,0,1,0,.811c-.174.365-.624.474-1.022.547l-15,2.664a1.05,1.05,0,0,1-1.484-.892q-1.9-6.285-3.325-12.7" transform="translate(-115.987 -313.719)"/><path class="d" d="M194.194,525.539l14.427-1.354c1.253-.118,2.838-.6,3.832.191s.969,2.161,1.216,3.333l.783,3.552c.239,1.091.953,2.838.872,3.945-.1,1.346-1.715,1.216-2.879,1.435l-3.548.633c-2.461.438-5,1.131-7.493,1.33-.6.049-1.841.3-2.315-.187a6.785,6.785,0,0,1-.547-1.853q-.487-1.671-.937-3.349c-.669-2.486-1.277-4.987-1.841-7.5-.17-.762-1.342-.442-1.172.324q1.1,4.9,2.457,9.731c.511,1.8.6,4.46,2.94,4.3,3.187-.2,6.488-1.143,9.626-1.7,1.707-.3,3.422-.58,5.125-.912.653-.126,1.431-.231,1.78-.9s.02-1.439-.114-2.08c-.385-1.845-.811-3.682-1.216-5.522-.377-1.7-.373-5.125-2.185-6.054-.945-.487-2.226-.15-3.244-.053l-5.458.511-10.137.953c-.774.073-.779,1.289,0,1.216Z" transform="translate(-115.092 -312.818)"/><path class="d" d="M181.18,463.49a35.227,35.227,0,0,1,4.1,11.994l10.21-.7a15.934,15.934,0,0,0,4.866-.847,3.958,3.958,0,0,0,1.873-1.37,4.9,4.9,0,0,0,.572-2.838,34.262,34.262,0,0,0-.482-5.239,2.976,2.976,0,0,0-1.156-2.222,2.839,2.839,0,0,0-1.18-.268,22.239,22.239,0,0,0-3.751.057c-3.167.316-6.277,1.31-9.456,1.164-1.675-.077-3.394-.466-4.991.045" transform="translate(-107.718 -276.731)"/><path class="d" d="M179.772,462.743a36.491,36.491,0,0,1,4.03,11.848.608.608,0,0,0,.588.446l7.854-.539a28.452,28.452,0,0,0,6.706-.811c4.2-1.3,3.747-5.182,3.284-8.851-.174-1.37-.268-3.292-1.622-4.107-1.472-.9-4.055-.478-5.677-.3-2.433.272-4.817.924-7.262,1.091-2.344.158-4.667-.462-6.978.1-.762.186-.438,1.358.324,1.172,1.865-.454,3.682,0,5.559,0a26.962,26.962,0,0,0,4.525-.507,41.457,41.457,0,0,1,5.677-.77,5.173,5.173,0,0,1,2.923.381c1,.608,1.026,1.322,1.192,2.433.264,1.74.7,4.2.231,5.936-.657,2.433-3.836,2.615-5.871,2.79-3.649.3-7.3.5-10.915.75l.588.446a37.445,37.445,0,0,0-4.107-12.115C180.445,461.445,179.395,462.057,179.772,462.743Z" transform="translate(-106.833 -275.676)"/><path class="d" d="M281.973,454.108a.187.187,0,1,1-.215.057l1.7,8.243a1.748,1.748,0,0,0,.259.71,1.766,1.766,0,0,0,1.549.442,109.962,109.962,0,0,0,12.046-1.216.734.734,0,0,0,.811-.888l-.162-7.323a.511.511,0,0,0-.653-.608l-16.571.612" transform="translate(-166.909 -271.708)"/><path class="d" d="M280.569,453.429l-.024-.264.831-.219.109.231-1.2.162c.56,2.713.908,5.591,1.7,8.243.426,1.419,1.354,1.622,2.773,1.581,2.644-.089,5.3-.361,7.919-.685,1.253-.154,4.233.036,4.979-1.156a4.644,4.644,0,0,0,.15-2.335l-.089-4.026c-.024-1.1.308-2.7-1.026-3.037a15.193,15.193,0,0,0-3.828.122l-4.339.162-8.681.32c-.778.028-.783,1.245,0,1.216l11.836-.438,2.368-.089,1.577-.057q1.123-.438.847.7a7.771,7.771,0,0,1,.049,2.2c.02.965.126,1.971.065,2.927-.089,1.375-.057,1.731-1.448,1.938q-1.622.235-3.215.405-2.631.3-5.271.483c-1.1.073-2.688.5-3.487-.576a7.13,7.13,0,0,1-.466-2.246L281.465,453a.612.612,0,0,0-1.2.162v.207a.6.6,0,0,0,.3.527l.187.085a.633.633,0,0,0,.831-.219l.122-.166a.6.6,0,0,0,0-.612l-.1-.182c-.369-.693-1.419-.077-1.05.612Z" transform="translate(-166.033 -270.708)"/><path class="d" d="M238.93,489.323a6.893,6.893,0,0,1,1.735,3.341,61.489,61.489,0,0,1,1.683,7.258,1.545,1.545,0,0,0,.308.831c.308.308.758.134,1.131-.032,4.03-1.8,8.47-1.054,12.748-1.383a1.43,1.43,0,0,0,1.306-.665,2.3,2.3,0,0,0,.142-1l-.028-4.845c0-1.727-.069-3.617-.993-4.918a1,1,0,0,0-.483-.405,1.058,1.058,0,0,0-.7.15,12,12,0,0,1-3.746.811l-12.687,1.318" transform="translate(-142.052 -291.921)"/><path class="d" d="M237.6,488.765c2.084,2.129,2.534,6.406,3.061,9.224.264,1.415.405,2.887,2.194,2.408a27.872,27.872,0,0,1,4.886-1.216c1.431-.13,2.871-.114,4.306-.122s4.562.519,5.421-1.07a6.442,6.442,0,0,0,.215-2.919c0-1.512.036-3.033-.049-4.545-.073-1.314-.276-4.152-1.894-4.606-.738-.207-1.565.405-2.242.568a30.993,30.993,0,0,1-4.744.612l-10.307,1.07c-.77.081-.778,1.3,0,1.216,4.643-.483,9.326-.811,13.956-1.464.742-.105,1.622-.539,2.34-.56,1.533-.049,1.622,1.995,1.679,3.163.077,1.241.036,2.5.045,3.738,0,1.719.438,3.11-1.9,3.536-2.064.377-4.363,0-6.467.142a20.446,20.446,0,0,0-2.631.341c-.811.166-2.457,1.014-3.086.673-.73-.405-.742-2.335-.916-3.126q-.361-1.622-.811-3.244a10.179,10.179,0,0,0-2.2-4.679c-.547-.56-1.407.3-.86.86Z" transform="translate(-141.158 -290.957)"/><path class="d" d="M327.863,481.212a27.344,27.344,0,0,0,2.181,7.951,2.611,2.611,0,0,0,.6.941,2.4,2.4,0,0,0,1.671.405l5.527-.089a2.573,2.573,0,0,0,.92-.126,2.7,2.7,0,0,0,.957-.811,40.955,40.955,0,0,0,5.271-7.558c.207-.381.377-.941.045-1.216a.811.811,0,0,0-.665-.057c-4.521.961-9.16,2.631-13.628,1.411-1.375-.373-2.814-1.018-4.152-.515" transform="translate(-194.168 -287.824)"/><path class="d" d="M326.374,480.386a29.564,29.564,0,0,0,1.906,7.428c.685,1.675,1.322,2.4,3.155,2.465,1.569.057,3.167-.041,4.736-.073a4.915,4.915,0,0,0,2.027-.223c1.792-.811,3.345-3.649,4.407-5.214.7-1.046,2.733-3.337,2.283-4.752s-2.4-.568-3.353-.341a34.839,34.839,0,0,1-8.478,1.4c-2.554-.032-4.987-1.521-7.513-.916-.762.182-.438,1.354.324,1.172,1.841-.442,3.609.58,5.4.811a16.784,16.784,0,0,0,4.46-.045,43.282,43.282,0,0,0,4.334-.827c.405-.093,2.575-.9,2.875-.685.738.531-.134,1.6-.405,2.06a40.3,40.3,0,0,1-2.96,4.229c-.726.9-1.322,1.821-2.583,2.092a13.55,13.55,0,0,1-2.368.036,20.6,20.6,0,0,1-2.761.045c-1.975-.247-2.352-1.366-2.911-2.968a28.556,28.556,0,0,1-1.33-5.7c-.1-.766-1.318-.774-1.216,0Z" transform="translate(-193.287 -286.998)"/><path class="d" d="M293.686,514.6c-.081,3.029,1.216,5.908,2.461,8.665.158.345.357.726.722.835a1.342,1.342,0,0,0,.989-.247q5.883-3.284,11.5-7.027a1.585,1.585,0,0,0,.718-.762,1.078,1.078,0,0,0-.6-1.184,3.091,3.091,0,0,0-1.4-.264,105.258,105.258,0,0,0-14.706.612" transform="translate(-174.418 -308.02)"/><path class="d" d="M292.262,513.542a16.939,16.939,0,0,0,1.358,6.228c.438,1.095.953,3.455,2.275,3.836,1.439.406,3.564-1.5,4.7-2.169q3.244-1.894,6.37-3.933c1-.649,3.1-1.468,2.9-2.98-.138-1.042-1.143-1.435-2.027-1.561a40.512,40.512,0,0,0-7.152,0c-2.713.093-5.417.3-8.109.592-.77.085-.778,1.3,0,1.216,3.341-.361,6.694-.592,10.056-.641a19.386,19.386,0,0,1,4.651.028q1.216-.268.969,1.079l-.624.405a10.659,10.659,0,0,1-2.2,1.427q-2.052,1.31-4.136,2.559a23.3,23.3,0,0,1-3.88,2.258c-1.115.377-1.152.333-1.821-.641a11.61,11.61,0,0,1-1.034-2.433,15.229,15.229,0,0,1-1.054-5.271.608.608,0,0,0-1.216,0Z" transform="translate(-173.602 -306.96)"/><path class="d" d="M99.044,535l-.588.576a83.278,83.278,0,0,1,14.5.543,56.077,56.077,0,0,1,4.079,11.009.677.677,0,0,1,0,.405c-.1.268-.458.3-.742.288-4.728-.235-9.857-.624-13.38-3.767a18.168,18.168,0,0,1-2.141-2.368c-1.508-1.946-3.009-4.253-2.631-6.686" transform="translate(-58.315 -320.163)"/><path class="d" d="M97.767,533.74l-.584.555a.616.616,0,0,0,.43,1.034,85.788,85.788,0,0,1,12.6.328,2.106,2.106,0,0,1,2.161,1.573q.73,1.6,1.35,3.244c.288.762,2.319,5.271,1.744,5.863-.219.231-2.137-.122-2.494-.15-.989-.077-1.979-.174-2.96-.328a17.568,17.568,0,0,1-5.1-1.516c-3.426-1.715-7.355-6.143-7-10.2.069-.778-1.147-.774-1.216,0-.377,4.286,3.5,8.945,7.055,10.948A18.149,18.149,0,0,0,110,547.064c1.091.162,2.19.272,3.288.349.758.053,2.121.377,2.838.036,1.484-.689.15-3.167-.166-4.188a53.645,53.645,0,0,0-3.017-7.663c-.487-.989-.5-.924-1.622-1.054q-2.279-.268-4.57-.405a86.827,86.827,0,0,0-9.143-.024l.43,1.038.584-.555c.568-.543-.292-1.4-.86-.86Z" transform="translate(-57.472 -319.308)"/><path d="M24.485,350.025l33.581-3.11L74.459,345.4c2.644-.243,5.3-.576,7.951-.73s3.868,3.43,5.109,5.413c1.143,1.829,2.218,4.46,3.876,5.879,1.76,1.5,3.751.523,4.991-1.074a21.932,21.932,0,0,0,3.211-5.969,23.325,23.325,0,0,0,.916-3.361,6.151,6.151,0,0,1,.231-1.172c.511-1.115,1.111-.977,2.275-1.018,10.814-.405,21.6-1.216,32.336-2.591,12.209-1.561,24.494-4.866,36.857-4.557,2.611.061,2.611-3.994,0-4.055-11-.259-21.851,2.433-32.689,3.994-11.053,1.573-22.187,2.571-33.342,3.033-2.137.089-4.793-.272-6.767.673-2.153,1.03-2.481,3.2-2.948,5.3a19.771,19.771,0,0,1-1.095,3.487c-.405.941-1.435,2.1-1.675,3.057l-.405.576q1.091,1.014.487.182a7.9,7.9,0,0,0-1.066-1.7l-2.546-4.075c-1.091-1.739-2.084-4.022-3.844-5.206-2.165-1.46-5.052-.758-7.473-.531l-16.8,1.545-37.579,3.479c-2.575.239-2.6,4.294,0,4.055Z" transform="translate(-13.396 -199.56)"/><path class="e" d="M270.769,381.523l17.39-1.423a1.348,1.348,0,0,1,1.849,1.541l.037,10.031a3.11,3.11,0,0,1-1.37,3.061l-7.408,6.516a1.314,1.314,0,0,1-1.857.276l-8.811-4.5a3.373,3.373,0,0,1-2.185-2.944l-2.433-9.658a3.526,3.526,0,0,1-.085-2.113c.259-.669,1.143-1.135,1.719-.706" transform="translate(-158.004 -228.057)"/><path d="M267.883,380.646l8.308-.665,4.351-.357c1.147-.093,2.887.089,3.957-.324l.811-.065q-.243-.928-.174-.1a7.684,7.684,0,0,0,0,1.93v4.245a22.143,22.143,0,0,1,0,3.775c-.227,1.249-1.569,2.027-2.49,2.838-1.894,1.662-3.726,3.467-5.717,5.016q1.058.081.264-.215l-1.018-.519-1.695-.864-3.39-1.727c-.912-.466-2.53-.929-3.207-1.735s-.73-2.51-.961-3.434l-.928-3.714-.555-2.23c-.259-1.034-.142-1.362-1.216-1.812,2.408,1,3.459-2.923,1.079-3.909-2.129-.88-4.221.973-4.379,3.082a13.889,13.889,0,0,0,.718,4.091l1.216,4.829c.616,2.469.9,5.271,3.215,6.775,2.51,1.622,5.425,2.8,8.085,4.156.969.495,2.108,1.277,3.244,1.216,1.35-.053,2.327-1.05,3.276-1.885a89.887,89.887,0,0,0,7.2-6.37c1.889-2.08,1.334-5.158,1.326-7.753v-4.63c0-1.326.142-2.814-.718-3.933s-2.263-1.216-3.56-1.143c-1.849.122-3.694.3-5.539.454l-11.471.941c-2.583.211-2.6,4.27,0,4.055Z" transform="translate(-155.118 -225.153)"/><path d="M68.644,454.588q50.963-7.3,102.178-12.651,14.366-1.5,28.748-2.838c2.575-.243,2.6-4.3,0-4.055q-51.73,4.841-103.248,11.665-14.39,1.91-28.756,3.965c-2.575.369-1.48,4.278,1.079,3.909Z" transform="translate(-39.296 -260.73)"/><path d="M124.21,474.269q3.244,19.057,8.377,37.749c.689,2.514,4.6,1.448,3.909-1.079q-5.113-18.651-8.377-37.749C127.681,470.624,123.772,471.71,124.21,474.269Z" transform="translate(-73.827 -282.543)"/><path d="M177.083,474.38l3.933,19.057c1.216,5.908,1.861,12.411,4.553,17.869,1.156,2.339,4.655.288,3.5-2.027a35.7,35.7,0,0,1-2.461-8.734l-1.845-8.945-3.775-18.279c-.527-2.554-4.436-1.472-3.909,1.079Z" transform="translate(-105.25 -282.626)"/><path d="M229.238,463.206q2.514,18.481,6.244,36.768c.519,2.555,4.432,1.472,3.909-1.078q-3.726-18.279-6.244-36.768C232.8,459.552,228.889,460.651,229.238,463.206Z" transform="translate(-136.276 -275.964)"/><path d="M277.621,456.89a237.484,237.484,0,0,0,5.518,31.817c.62,2.534,4.533,1.46,3.909-1.079a229.5,229.5,0,0,1-5.372-30.739C281.408,454.319,277.349,454.295,277.621,456.89Z" transform="translate(-165.047 -272.572)"/><path d="M318.9,450.992a142.373,142.373,0,0,0,6.05,28.861c.811,2.473,4.712,1.415,3.909-1.079a137.243,137.243,0,0,1-5.9-27.775c-.268-2.571-4.326-2.6-4.055,0Z" transform="translate(-189.589 -269.07)"/><path d="M172.987,466.371l2.052,6.037c.835,2.457,4.752,1.4,3.909-1.079l-2.052-6.037C176.06,462.835,172.143,463.889,172.987,466.371Z" transform="translate(-102.776 -277.889)"/><path d="M81.6,489.661c30.848-3.69,61.433-9.326,92.313-12.752,8.795-.977,17.614-1.764,26.445-2.291,2.595-.154,2.611-4.209,0-4.055-30.941,1.841-61.538,7.019-92.167,11.475-8.847,1.285-17.707,2.506-26.582,3.568-2.559.3-2.591,4.363,0,4.055Z" transform="translate(-47.371 -281.851)"/><path d="M93.854,521.564c13.255-.839,26.546-1.456,39.768-2.708,13.121-1.245,26.1-3.6,39.144-5.389a228.026,228.026,0,0,1,22.929-2.1c2.6-.093,2.615-4.148,0-4.055-13.166.462-26.189,2.522-39.193,4.5-13.247,2.027-26.461,3.406-39.833,4.257l-22.82,1.448c-2.591.166-2.611,4.221,0,4.055Z" transform="translate(-54.637 -303.698)"/></g></g></svg>